<?xml version="1.0" encoding="utf-8"?>
<!-- Generator: Adobe Illustrator 17.0.2, SVG Export Plug-In . SVG Version: 6.00 Build 0)  -->
<!DOCTYPE svg PUBLIC "-//W3C//DTD SVG 1.1//EN" "http://www.w3.org/Graphics/SVG/1.1/DTD/svg11.dtd">
<svg version="1.1" id="Layer_1" xmlns="http://www.w3.org/2000/svg" xmlns:xlink="http://www.w3.org/1999/xlink" x="0px" y="0px"
	 width="150.667px" height="163.641px" viewBox="0 0 150.667 163.641" enable-background="new 0 0 150.667 163.641"
	 xml:space="preserve">
<g>
	<path fill="#FFFFFF" d="M3.74,0v88.317l0.13,4.377c2.242,37.667,33.633,67.218,71.462,67.218c37.755,0,69.191-29.521,71.594-67.222
		V0H3.74z"/>
	<g>
		<path fill="#D4AF7E" d="M84.143,119.657l0.163-72.796c16.421,5.361,27.48,18.286,27.595,36.113
			C111.727,101.385,100.839,113.724,84.143,119.657z M95.031,100.115c7.753-10.681,9.321-22.388,0-34.24V100.115z M79.922,46.247
			l0.373,0.04l0.169,73.831l-1.344,0.131c-3.876,0.41-5.326,0.236-9.222-0.205v-73.71c1.778-0.216,3.551-0.39,5.318-0.39
			C76.806,45.944,78.363,46.079,79.922,46.247z M38.85,87.933c-0.154-1.587-0.264-3.156-0.264-4.746
			c0-17.269,10.925-30.879,27.115-35.983v23.775h-9.756v-7.186c-4.572,3.571-6.401,9.074-7.419,14.123h17.2v41.26
			c-13.324-4.093-21.475-12.51-25.749-25.679l10.451,0.017c1.219,3.445,2.546,6.003,5.457,8.303V87.933H38.85z"/>
		<path fill-rule="evenodd" clip-rule="evenodd" fill="#106DB3" d="M85.338,48.305c16.355,5.347,25.418,19.514,25.505,34.669
			c-0.174,17.758-10.981,29.99-25.646,35.196L85.338,48.305z M93.975,63.006l0.028,40.169
			C104.036,90.954,106.557,76.955,93.975,63.006z M70.958,119.098v-71.85c1.403-0.174,2.836-0.244,4.258-0.244
			c1.373,0,2.717,0.071,4.033,0.217l0.155,71.937l-0.364,0.017C75.734,119.558,74.441,119.516,70.958,119.098z M49.685,94.553
			c1.602,4.56,3.941,7.164,7.262,9.278V86.893H39.789c-0.112-1.232-0.174-2.463-0.174-3.706c0-16.237,10.532-29.978,25.025-34.55
			v21.314h-7.649v-8.162c-6.619,3.985-8.648,11.25-9.734,17.165h17.424v38.814c-11.079-3.413-19.657-12.089-23.263-23.23
			L49.685,94.553z"/>
		<path fill-rule="evenodd" clip-rule="evenodd" fill="#007055" d="M35.42,83.201c0,22.005,17.825,39.829,39.815,39.829
			c21.999,0,39.815-17.825,39.815-39.829c0-21.97-17.816-39.81-39.815-39.81C53.245,43.391,35.42,61.231,35.42,83.201z
			 M23.112,83.201c0-28.775,23.345-52.109,52.123-52.109c28.773,0,52.135,23.334,52.135,52.109c0,28.809-23.361,52.14-52.135,52.14
			C46.457,135.342,23.112,112.01,23.112,83.201z"/>
		<path fill="#D4AF7E" d="M75.235,31.838c-28.377,0-51.369,23-51.369,51.363c0,28.377,22.992,51.397,51.369,51.397
			c28.38,0,51.366-23.02,51.366-51.397C126.601,54.839,103.615,31.838,75.235,31.838z M75.235,30.338
			c29.202,0,52.876,23.674,52.876,52.864c0,29.221-23.674,52.895-52.876,52.895c-29.204,0-52.886-23.674-52.886-52.895
			C22.348,54.011,46.031,30.338,75.235,30.338z M75.235,33.35c27.55,0,49.877,22.319,49.877,49.852
			c0,27.55-22.328,49.897-49.877,49.897c-27.547,0-49.879-22.35-49.879-49.897C25.356,55.668,47.688,33.35,75.235,33.35z
			 M75.235,33.841c-27.269,0-49.38,22.094-49.38,49.361c0,27.277,22.111,49.391,49.38,49.391c27.288,0,49.388-22.114,49.388-49.391
			C124.623,55.935,102.523,33.841,75.235,33.841z M75.235,41.764c22.886,0,41.471,18.532,41.471,41.437
			c0,22.905-18.585,41.49-41.471,41.49c-22.888,0-41.473-18.585-41.473-41.49C33.762,60.296,52.347,41.764,75.235,41.764z
			 M75.235,42.244c-22.632,0-40.962,18.338-40.962,40.957c0,22.632,18.33,40.974,40.962,40.974
			c22.626,0,40.958-18.341,40.958-40.974C116.193,60.582,97.861,42.244,75.235,42.244z"/>
		<path fill="#D4AF7E" d="M124.886,114.111l-1.547-0.241l0.858,1.31L124.886,114.111z M125.142,114.142l-0.831,1.251l0.258,0.376
			c0.087,0.128,0.143,0.202,0.227,0.256c0.112,0.058,0.197,0.073,0.284,0.017c0.061-0.034,0.171-0.129,0.289-0.304l0.112,0.06
			l-0.769,1.186l-0.09-0.07c0.057-0.146,0.057-0.286,0.034-0.415c-0.034-0.14-0.147-0.343-0.316-0.646l-1.97-3.071v-0.056
			l3.712,0.598c0.372,0.042,0.605,0.058,0.717,0.014c0.087-0.014,0.169-0.07,0.256-0.171l0.116,0.042l-1.117,1.72l-0.116-0.059
			l0.059-0.073c0.085-0.137,0.143-0.227,0.115-0.311c0-0.073-0.03-0.115-0.058-0.16c-0.056-0.017-0.084-0.029-0.116-0.042
			c-0.025,0-0.113-0.011-0.257-0.042L125.142,114.142z M119.393,117.099l3.319-0.099l-1.432-1.074
			c-0.199-0.157-0.344-0.23-0.454-0.23c-0.173,0.014-0.314,0.101-0.462,0.303l-0.085-0.073l0.861-1.113l0.085,0.073
			c-0.085,0.157-0.143,0.272-0.143,0.339c-0.027,0.073,0,0.143,0.058,0.219c0.026,0.081,0.14,0.182,0.286,0.294l2.772,2.079
			l-0.056,0.098l-4.492,0.188l2.122,1.588c0.192,0.154,0.339,0.199,0.481,0.154c0.147-0.017,0.259-0.104,0.34-0.213l0.056-0.073
			l0.09,0.053l-0.883,1.207l-0.118-0.071c0.142-0.188,0.199-0.342,0.199-0.477c-0.027-0.129-0.143-0.258-0.317-0.381l-2.339-1.787
			l-0.149,0.008c-0.14,0-0.252,0.032-0.312,0.048c-0.087,0.042-0.14,0.101-0.23,0.216l-0.109-0.076L119.393,117.099z
			 M119.191,121.67l-1.487-0.482l0.66,1.433L119.191,121.67z M119.422,121.729l-0.969,1.128l0.199,0.401
			c0.055,0.129,0.112,0.218,0.202,0.286c0.081,0.07,0.167,0.107,0.277,0.059c0.06-0.028,0.176-0.115,0.32-0.258l0.084,0.07
			l-0.914,1.063l-0.086-0.073c0.086-0.129,0.118-0.275,0.118-0.4c-0.032-0.155-0.091-0.391-0.261-0.705l-1.515-3.315l0.034-0.042
			l3.6,1.091c0.314,0.112,0.569,0.154,0.687,0.138c0.11-0.014,0.194-0.056,0.283-0.155l0.081,0.073l-1.341,1.54l-0.084-0.068
			l0.061-0.058c0.11-0.129,0.164-0.244,0.164-0.317c0-0.041,0-0.097-0.054-0.14c-0.031-0.03-0.059-0.042-0.087-0.059
			c-0.023,0-0.112-0.039-0.258-0.084L119.422,121.729z M115.303,121.788l1.001,1.06l-0.085,0.087
			c-0.339-0.236-0.657-0.315-0.973-0.306c-0.312,0.031-0.598,0.146-0.831,0.373c-0.198,0.174-0.316,0.401-0.37,0.657
			c-0.056,0.261-0.025,0.516,0.054,0.76c0.118,0.311,0.291,0.614,0.549,0.9c0.253,0.269,0.542,0.469,0.792,0.643
			c0.291,0.16,0.581,0.226,0.842,0.182c0.226-0.008,0.479-0.12,0.706-0.356c0.199-0.166,0.345-0.384,0.434-0.626
			c0.081-0.227,0.116-0.53,0.081-0.901l0.264,0.256c0,0.345-0.064,0.645-0.174,0.9c-0.117,0.256-0.289,0.5-0.543,0.726
			c-0.345,0.32-0.69,0.516-1.058,0.631c-0.372,0.101-0.746,0.101-1.114-0.025c-0.378-0.101-0.689-0.303-0.945-0.569
			c-0.289-0.306-0.463-0.648-0.541-1.063c-0.087-0.396-0.06-0.788,0.053-1.187c0.116-0.387,0.341-0.716,0.632-0.987
			c0.229-0.199,0.484-0.368,0.824-0.516c0.171-0.07,0.289-0.121,0.345-0.168c0.033-0.031,0.056-0.084,0.056-0.155
			c0-0.075-0.023-0.156-0.084-0.23L115.303,121.788z M114.709,127.995l0.081,0.082l-1.658,1.444l-0.084-0.07l0.112-0.104
			c0.084-0.084,0.146-0.157,0.173-0.238c0.029-0.056,0.029-0.112,0-0.191c-0.028-0.054-0.089-0.154-0.233-0.323l-1.8-2.072
			c-0.144-0.175-0.23-0.264-0.284-0.29c-0.055-0.014-0.117-0.03-0.204,0c-0.081,0-0.163,0.042-0.252,0.127l-0.118,0.103
			l-0.056-0.084l1.657-1.46l0.087,0.084l-0.115,0.089c-0.085,0.082-0.143,0.172-0.174,0.244c-0.025,0.068-0.025,0.127,0,0.196
			c0,0.056,0.089,0.157,0.23,0.331l1.8,2.072c0.149,0.171,0.228,0.238,0.289,0.286c0.057,0.012,0.112,0.029,0.203,0
			c0.053,0,0.138-0.061,0.228-0.128L114.709,127.995z M107.92,128.234l3.237,0.819l-1.088-1.431
			c-0.137-0.202-0.278-0.317-0.401-0.345c-0.138-0.025-0.311,0.028-0.482,0.157l-0.084-0.085l1.113-0.847l0.09,0.104
			c-0.146,0.129-0.236,0.23-0.264,0.286c-0.019,0.054-0.019,0.143,0,0.23c0.027,0.087,0.09,0.213,0.207,0.356l2.115,2.785
			l-0.09,0.056l-4.372-1.057l1.601,2.131c0.14,0.187,0.288,0.286,0.429,0.286c0.11,0,0.255-0.042,0.373-0.126l0.081-0.059
			l0.056,0.086l-1.2,0.914l-0.057-0.097c0.172-0.149,0.284-0.278,0.284-0.402c0.033-0.148-0.029-0.285-0.166-0.474l-1.773-2.359
			l-0.149-0.031c-0.109-0.042-0.227-0.042-0.312-0.042c-0.055,0.031-0.17,0.073-0.254,0.141l-0.087-0.099L107.92,128.234z
			 M108.784,132.634l0.089,0.107l-1.859,1.197l-0.057-0.084l0.112-0.09c0.085-0.067,0.174-0.126,0.203-0.213
			c0.029-0.053,0.053-0.115,0.029-0.185c0-0.07-0.057-0.182-0.172-0.339l-1.521-2.319c-0.109-0.185-0.198-0.297-0.227-0.328
			c-0.056-0.012-0.109-0.039-0.198-0.032c-0.085,0-0.174,0.032-0.257,0.088l-0.117,0.087l-0.087-0.087l1.859-1.232l0.062,0.115
			l-0.117,0.073c-0.112,0.075-0.174,0.129-0.199,0.213c-0.029,0.059-0.057,0.116-0.029,0.202c0,0.053,0.054,0.16,0.171,0.342
			l1.518,2.317c0.084,0.168,0.171,0.275,0.225,0.317c0.061,0.026,0.109,0.04,0.198,0.04c0.09,0,0.174-0.04,0.264-0.112
			L108.784,132.634z M103.463,134.413l-0.332-2.991l1.515-0.827l0.022,0.087l-0.112,0.084c-0.118,0.054-0.173,0.115-0.233,0.185
			c-0.025,0.056-0.025,0.132-0.025,0.202c0,0.042,0.055,0.171,0.14,0.353l1.346,2.404c0.118,0.202,0.168,0.303,0.227,0.345
			c0.031,0.025,0.09,0.056,0.174,0.056c0.086,0,0.169-0.031,0.285-0.099l0.112-0.058l0.062,0.101l-1.92,1.069l-0.056-0.098
			l0.116-0.061c0.115-0.068,0.198-0.124,0.227-0.197c0.03-0.055,0.058-0.115,0.03-0.196c0-0.059-0.058-0.154-0.142-0.359
			l-1.485-2.718l0.431,4.134l-0.091,0.039l-3.259-2.529l1.427,2.574c0.089,0.202,0.174,0.297,0.202,0.329
			c0.09,0.081,0.144,0.126,0.261,0.157c0.112,0,0.256-0.048,0.429-0.13l0.057,0.099l-1.265,0.701l-0.048-0.097l0.025-0.029
			c0.085-0.042,0.174-0.104,0.23-0.156c0.056-0.076,0.081-0.15,0.081-0.199c0-0.076,0-0.149-0.025-0.245
			c0-0.028-0.056-0.115-0.147-0.285l-1.283-2.315c-0.085-0.191-0.174-0.306-0.197-0.331c-0.06-0.045-0.117-0.058-0.204-0.058
			c-0.085,0-0.174,0.031-0.284,0.084l-0.117,0.062l-0.056-0.088l1.514-0.855L103.463,134.413z M97.517,134.494
			c-0.339,0.161-0.545,0.446-0.567,0.89c-0.033,0.37,0.056,0.811,0.31,1.372c0.256,0.658,0.6,1.105,0.947,1.298
			c0.257,0.171,0.543,0.171,0.827,0.045c0.199-0.07,0.348-0.199,0.429-0.342c0.116-0.199,0.172-0.443,0.147-0.76
			c0-0.297-0.116-0.673-0.289-1.097c-0.228-0.5-0.43-0.872-0.63-1.088c-0.198-0.194-0.4-0.328-0.599-0.371
			C97.918,134.398,97.72,134.413,97.517,134.494z M97.408,134.326c0.628-0.286,1.201-0.313,1.744-0.112
			c0.542,0.227,0.941,0.612,1.173,1.187c0.202,0.5,0.254,0.999,0.112,1.484c-0.174,0.654-0.598,1.145-1.315,1.431
			c-0.687,0.3-1.313,0.3-1.918-0.014c-0.458-0.247-0.769-0.615-0.999-1.128c-0.234-0.577-0.234-1.136,0-1.674
			C96.435,134.929,96.833,134.553,97.408,134.326z M92.572,136.542l1.063,3.113c0.05,0.146,0.084,0.247,0.138,0.272
			c0,0.045,0.062,0.062,0.089,0.073c0.05,0,0.14,0,0.258-0.042c0.308-0.115,0.511-0.303,0.629-0.598
			c0.142-0.392,0.08-0.888-0.147-1.537c-0.174-0.479-0.367-0.881-0.628-1.124c-0.202-0.188-0.429-0.3-0.657-0.3
			C93.145,136.368,92.917,136.438,92.572,136.542z M92.345,140.817l-0.029-0.101l0.112-0.045c0.116-0.053,0.203-0.101,0.261-0.153
			c0.056-0.056,0.081-0.115,0.081-0.185c0-0.062-0.025-0.186-0.081-0.39l-0.918-2.598c-0.055-0.199-0.109-0.348-0.142-0.372
			c-0.057-0.06-0.116-0.088-0.175-0.102c-0.081,0-0.193,0-0.284,0.042l-0.149,0.045l-0.022-0.117l1.77-0.612
			c0.49-0.156,0.864-0.226,1.203-0.202c0.401,0.032,0.775,0.169,1.057,0.446c0.289,0.238,0.517,0.567,0.629,0.971
			c0.121,0.284,0.144,0.558,0.144,0.813c-0.023,0.275-0.053,0.516-0.172,0.713c-0.084,0.205-0.199,0.376-0.339,0.55
			c-0.179,0.157-0.374,0.295-0.628,0.454c-0.118,0.059-0.289,0.129-0.544,0.23L92.345,140.817z M89.717,140.057l0.172,1.475
			l-3.632,0.859l-0.025-0.115l0.109-0.031c0.143-0.011,0.227-0.059,0.292-0.126c0.05-0.048,0.08-0.104,0.08-0.175
			c0-0.07,0-0.185-0.054-0.384l-0.603-2.707c-0.052-0.197-0.082-0.323-0.112-0.365c-0.06-0.058-0.087-0.089-0.172-0.104
			c-0.087-0.025-0.168-0.025-0.286,0l-0.146,0.029l-0.025-0.112l2.171-0.516l0.027,0.115l-0.165,0.039
			c-0.119,0.034-0.207,0.073-0.264,0.132c-0.05,0.027-0.081,0.106-0.115,0.174c0,0.056,0.033,0.185,0.064,0.381l0.598,2.621
			c0.055,0.201,0.08,0.342,0.115,0.384c0.055,0.058,0.111,0.087,0.167,0.087c0.062,0.019,0.199,0,0.374-0.059l0.339-0.07
			c0.227-0.057,0.407-0.129,0.516-0.245c0.141-0.115,0.228-0.255,0.312-0.454c0.062-0.185,0.117-0.446,0.117-0.802L89.717,140.057z
			 M83.637,141.361l-0.827-1.33l-0.427,1.545L83.637,141.361z M83.784,141.576l-1.461,0.227l-0.115,0.441
			c-0.046,0.146-0.057,0.258-0.046,0.342c0.017,0.115,0.076,0.202,0.19,0.247c0.057,0.025,0.199,0.025,0.416,0l0.015,0.112
			l-1.375,0.23l-0.014-0.115c0.128-0.042,0.254-0.131,0.329-0.247c0.083-0.112,0.17-0.341,0.256-0.684l0.974-3.543l0.053-0.019
			l2.045,3.169c0.202,0.295,0.344,0.469,0.431,0.539c0.087,0.056,0.199,0.07,0.314,0.07l0.029,0.118l-2.02,0.325l-0.022-0.112
			l0.079-0.017c0.19-0.027,0.303-0.073,0.362-0.131c0.03-0.037,0.03-0.096,0.03-0.138c0-0.045,0-0.073-0.03-0.115
			c0-0.031-0.059-0.09-0.144-0.217L83.784,141.576z M80.967,143.033l0.01,0.115l-2.184,0.199l-0.018-0.112l0.131-0.02
			c0.133,0,0.213-0.025,0.304-0.085c0.039-0.03,0.084-0.089,0.112-0.16c0.016-0.05,0.016-0.182,0-0.384l-0.23-2.774
			c-0.027-0.196-0.042-0.328-0.07-0.385c-0.029-0.059-0.087-0.098-0.138-0.129c-0.091-0.025-0.178-0.045-0.292-0.045l-0.143,0.031
			l-0.014-0.112l2.199-0.212v0.123l-0.14,0.017c-0.115,0-0.213,0.025-0.289,0.087c-0.057,0.028-0.085,0.086-0.112,0.157
			c-0.017,0.058-0.017,0.182,0,0.385l0.229,2.762c0.026,0.211,0.042,0.343,0.071,0.382c0.027,0.073,0.07,0.115,0.156,0.145
			c0.057,0.023,0.156,0.042,0.284,0.023L80.967,143.033z M75.39,139.526l0.056,1.835h0.171c0.289,0,0.519-0.045,0.662-0.101
			c0.14-0.056,0.238-0.151,0.31-0.301c0.091-0.143,0.112-0.33,0.112-0.544c-0.014-0.328-0.078-0.556-0.249-0.701
			c-0.151-0.144-0.401-0.214-0.718-0.197L75.39,139.526z M75.462,141.588l0.045,1.169c0,0.23,0.011,0.372,0.045,0.432
			c0.025,0.056,0.065,0.098,0.154,0.14c0.056,0.017,0.199,0.042,0.384,0.03v0.115l-2.126,0.085v-0.115
			c0.168,0,0.311-0.025,0.367-0.073c0.073-0.025,0.109-0.084,0.146-0.157c0.025-0.04,0.04-0.182,0.025-0.41l-0.087-2.732
			c0-0.23-0.01-0.359-0.05-0.418c-0.034-0.068-0.076-0.115-0.152-0.138c-0.07-0.033-0.193-0.045-0.4-0.045v-0.113l1.963-0.075
			c0.502-0.031,0.87,0,1.115,0.059c0.245,0.058,0.442,0.182,0.584,0.371c0.143,0.168,0.23,0.4,0.242,0.645
			c0.017,0.328-0.099,0.583-0.313,0.785c-0.131,0.13-0.33,0.239-0.584,0.315l1.054,1.375c0.134,0.199,0.232,0.297,0.291,0.342
			c0.082,0.06,0.187,0.084,0.284,0.101l0.033,0.096l-1.345,0.062l-1.403-1.857L75.462,141.588z M73.734,139.33l-0.086,1.142H73.53
			c-0.056-0.269-0.115-0.472-0.171-0.589c-0.084-0.113-0.182-0.208-0.311-0.286c-0.09-0.056-0.216-0.07-0.418-0.078l-0.3-0.033
			l-0.256,3.248c0,0.213,0,0.345,0.017,0.398c0.015,0.06,0.056,0.105,0.126,0.146c0.056,0.054,0.157,0.071,0.286,0.084l0.126,0.012
			l-0.011,0.115l-2.17-0.14v-0.132l0.138,0.02c0.115,0.01,0.199-0.02,0.288-0.045c0.054-0.014,0.113-0.071,0.143-0.13
			c0.028-0.056,0.06-0.187,0.06-0.384l0.241-3.248l-0.301-0.017c-0.286-0.025-0.491,0.017-0.631,0.129
			c-0.185,0.158-0.317,0.387-0.384,0.704l-0.13-0.011l0.085-1.133L73.734,139.33z M69.16,138.929l-0.132,1.403l-0.129-0.017
			c-0.011-0.356-0.117-0.659-0.325-0.904c-0.218-0.238-0.449-0.364-0.718-0.401c-0.218-0.022-0.381,0.017-0.513,0.115
			c-0.146,0.09-0.218,0.205-0.247,0.359c0,0.086,0,0.171,0.045,0.244c0.045,0.115,0.129,0.213,0.247,0.328
			c0.087,0.073,0.297,0.226,0.629,0.429c0.454,0.297,0.753,0.572,0.883,0.802c0.146,0.23,0.207,0.496,0.171,0.771
			c-0.042,0.346-0.228,0.626-0.525,0.844c-0.303,0.227-0.658,0.312-1.071,0.258c-0.148-0.014-0.261-0.042-0.379-0.084
			c-0.109-0.045-0.252-0.107-0.423-0.205c-0.087-0.04-0.171-0.068-0.23-0.085c-0.059,0-0.112,0.017-0.171,0.045
			c-0.056,0.025-0.116,0.087-0.171,0.154h-0.115l0.199-1.571h0.112c0.033,0.457,0.171,0.816,0.387,1.086
			c0.241,0.244,0.502,0.401,0.791,0.444c0.221,0.025,0.423-0.017,0.569-0.112c0.157-0.132,0.241-0.247,0.269-0.429
			c0.014-0.087-0.009-0.189-0.042-0.286c-0.056-0.104-0.118-0.202-0.216-0.286c-0.101-0.096-0.269-0.23-0.516-0.4
			c-0.353-0.228-0.615-0.43-0.754-0.57c-0.143-0.146-0.255-0.314-0.331-0.502c-0.07-0.157-0.084-0.342-0.07-0.547
			c0.059-0.328,0.202-0.597,0.486-0.802c0.272-0.21,0.606-0.28,0.972-0.238c0.113,0.014,0.255,0.042,0.373,0.081
			c0.098,0.048,0.199,0.107,0.339,0.205c0.118,0.068,0.227,0.115,0.272,0.115c0.062,0.014,0.107,0,0.129-0.03
			c0.029-0.026,0.09-0.096,0.115-0.214H69.16z M61.926,137.823l2.11,0.421l-0.009,0.115l-0.101-0.019
			c-0.171-0.039-0.286-0.039-0.345-0.009c-0.07,0.009-0.115,0.053-0.154,0.098c-0.045,0.058-0.076,0.196-0.135,0.443l-0.399,2.017
			c-0.07,0.371-0.084,0.629-0.056,0.741c0.028,0.145,0.101,0.243,0.216,0.359c0.117,0.101,0.255,0.172,0.457,0.216
			c0.21,0.04,0.415,0.028,0.6-0.059c0.171-0.075,0.326-0.171,0.427-0.342c0.129-0.157,0.216-0.443,0.3-0.889l0.347-1.686
			c0.026-0.182,0.037-0.328,0.009-0.415c-0.009-0.084-0.048-0.158-0.097-0.189c-0.082-0.067-0.214-0.115-0.371-0.138l0.019-0.115
			l1.41,0.272l-0.013,0.112l-0.084-0.017c-0.12-0.025-0.218-0.011-0.303,0.017c-0.09,0.028-0.153,0.095-0.216,0.171
			c-0.041,0.059-0.07,0.171-0.101,0.345l-0.312,1.57c-0.089,0.491-0.198,0.828-0.313,1.03c-0.101,0.197-0.286,0.371-0.572,0.517
			c-0.283,0.129-0.642,0.156-1.06,0.073c-0.37-0.073-0.626-0.174-0.802-0.317c-0.245-0.157-0.399-0.362-0.469-0.586
			c-0.073-0.225-0.073-0.513,0-0.855l0.401-2.019c0.042-0.242,0.068-0.384,0.042-0.461c-0.017-0.048-0.062-0.112-0.115-0.171
			c-0.056-0.025-0.174-0.068-0.34-0.115L61.926,137.823z M59.177,137.271l-0.971,3.131c-0.059,0.156-0.071,0.286-0.071,0.314
			c0,0.042,0.012,0.087,0.043,0.115c0.059,0.042,0.126,0.084,0.227,0.112c0.315,0.104,0.617,0.059,0.861-0.112
			c0.328-0.23,0.6-0.658,0.799-1.304c0.14-0.525,0.202-0.968,0.129-1.31c-0.045-0.277-0.157-0.502-0.328-0.658
			C59.735,137.47,59.505,137.355,59.177,137.271z M56.462,140.601l0.045-0.115l0.123,0.045c0.132,0.027,0.216,0.039,0.286,0.027
			c0.087-0.027,0.148-0.056,0.191-0.115c0.042-0.028,0.07-0.161,0.157-0.356l0.799-2.658c0.073-0.205,0.101-0.332,0.085-0.402
			c0-0.039-0.025-0.115-0.085-0.157c-0.058-0.07-0.126-0.115-0.257-0.16l-0.112-0.026l0.025-0.115l1.804,0.541
			c0.482,0.16,0.83,0.317,1.082,0.561c0.32,0.266,0.499,0.583,0.589,0.953c0.085,0.385,0.076,0.777-0.07,1.187
			c-0.09,0.275-0.199,0.533-0.373,0.746c-0.154,0.199-0.346,0.374-0.544,0.488c-0.168,0.112-0.384,0.183-0.595,0.214
			c-0.232,0.056-0.48,0.056-0.763,0.014c-0.129-0.014-0.326-0.053-0.586-0.13L56.462,140.601z M54.888,135.524l0.998,3.175
			l0.659-1.703c0.084-0.225,0.118-0.4,0.084-0.499c-0.056-0.155-0.194-0.27-0.401-0.343l0.034-0.117l1.282,0.491l-0.022,0.109
			c-0.174-0.041-0.303-0.041-0.372-0.041c-0.076,0.016-0.146,0.041-0.202,0.115c-0.054,0.061-0.129,0.191-0.2,0.376l-1.259,3.273
			l-0.101-0.028l-1.383-4.295l-0.973,2.505c-0.084,0.23-0.084,0.401-0.034,0.516c0.09,0.115,0.191,0.197,0.317,0.255l0.101,0.031
			l-0.039,0.115l-1.392-0.53l0.048-0.115c0.196,0.086,0.37,0.086,0.513,0.039c0.095-0.053,0.202-0.197,0.288-0.398l1.072-2.774
			l-0.048-0.124c-0.042-0.149-0.081-0.233-0.143-0.302c-0.056-0.042-0.129-0.099-0.256-0.158l0.053-0.099L54.888,135.524z
			 M51.632,138.6l-0.058,0.098l-1.972-0.914l0.028-0.098l0.147,0.056c0.109,0.042,0.196,0.073,0.283,0.059
			c0.053-0.017,0.115-0.025,0.171-0.087c0.045-0.028,0.109-0.143,0.2-0.331l1.172-2.513c0.096-0.205,0.146-0.331,0.146-0.387
			c0-0.056-0.017-0.112-0.058-0.191c-0.04-0.05-0.115-0.127-0.233-0.154l-0.127-0.07l0.056-0.098l1.992,0.914l-0.062,0.115
			l-0.127-0.07c-0.101-0.045-0.199-0.076-0.303-0.058c-0.051,0-0.109,0.025-0.166,0.081c-0.034,0.031-0.104,0.146-0.199,0.334
			l-1.176,2.516c-0.09,0.185-0.146,0.328-0.146,0.384c0,0.059,0.029,0.115,0.056,0.188c0.059,0.056,0.149,0.126,0.247,0.168
			L51.632,138.6z M47.096,131.908l-1.64,2.847c-0.099,0.14-0.141,0.252-0.141,0.286c0,0.045,0,0.084,0.026,0.124
			c0.03,0.048,0.084,0.107,0.171,0.16c0.302,0.174,0.595,0.199,0.875,0.075c0.367-0.16,0.726-0.516,1.054-1.088
			c0.275-0.471,0.413-0.884,0.446-1.243c0-0.305-0.061-0.532-0.199-0.715C47.598,132.225,47.399,132.068,47.096,131.908z
			 M43.708,134.553l0.076-0.101l0.109,0.076c0.104,0.056,0.187,0.09,0.274,0.09c0.07,0,0.144-0.034,0.202-0.078
			c0.037-0.029,0.112-0.126,0.228-0.326l1.388-2.389c0.099-0.202,0.155-0.317,0.169-0.377c0.014-0.053-0.014-0.122-0.048-0.196
			c-0.056-0.056-0.11-0.129-0.211-0.169l-0.129-0.089l0.061-0.084l1.624,0.931c0.435,0.236,0.752,0.513,0.948,0.768
			c0.241,0.329,0.356,0.687,0.345,1.089c0,0.387-0.104,0.755-0.319,1.141c-0.157,0.258-0.328,0.474-0.539,0.649
			c-0.199,0.151-0.417,0.266-0.629,0.339c-0.198,0.073-0.434,0.086-0.645,0.086c-0.218-0.014-0.474-0.072-0.735-0.16
			c-0.126-0.058-0.311-0.14-0.538-0.266L43.708,134.553z M42.609,132.068l0.331-1.545l-1.375,0.83L42.609,132.068z M42.567,132.309
			l-1.212-0.827l-0.393,0.23c-0.115,0.081-0.199,0.156-0.256,0.227c-0.069,0.084-0.081,0.182-0.028,0.285
			c0.028,0.068,0.118,0.157,0.284,0.297l-0.053,0.104l-1.142-0.802l0.056-0.098c0.146,0.067,0.275,0.098,0.413,0.067
			c0.132-0.04,0.362-0.14,0.657-0.311l3.158-1.916l0.059,0.039l-0.761,3.691c-0.064,0.356-0.097,0.583-0.064,0.716
			c0.025,0.101,0.081,0.185,0.183,0.269l-0.074,0.09l-1.658-1.158l0.056-0.106l0.085,0.058c0.132,0.089,0.233,0.132,0.316,0.132
			c0.063,0,0.104-0.034,0.144-0.07c0.017-0.042,0.027-0.062,0.056-0.12c0-0.009,0.034-0.079,0.057-0.236L42.567,132.309z
			 M39.908,126.75l-2.112,2.544c-0.118,0.115-0.177,0.213-0.191,0.252c-0.012,0.045-0.012,0.079,0.014,0.118
			c0,0.057,0.059,0.13,0.146,0.197c0.258,0.219,0.541,0.305,0.822,0.219c0.401-0.073,0.822-0.376,1.248-0.889
			c0.356-0.41,0.561-0.797,0.645-1.153c0.055-0.286,0.028-0.53-0.071-0.732C40.334,127.163,40.168,126.991,39.908,126.75z
			 M36.118,128.794l0.073-0.104l0.112,0.104c0.087,0.07,0.173,0.112,0.256,0.124c0.073,0.019,0.146,0.019,0.215-0.025
			c0.045-0.014,0.132-0.112,0.272-0.272l1.779-2.145c0.143-0.157,0.224-0.273,0.224-0.332c0.028-0.042,0.028-0.112,0-0.182
			c-0.028-0.088-0.081-0.157-0.171-0.227l-0.117-0.104l0.089-0.068l1.431,1.187c0.384,0.326,0.642,0.64,0.785,0.943
			c0.182,0.37,0.244,0.746,0.16,1.13c-0.062,0.381-0.227,0.743-0.52,1.054c-0.198,0.244-0.401,0.418-0.628,0.559
			c-0.243,0.132-0.472,0.199-0.69,0.23c-0.227,0.017-0.44,0.017-0.653-0.031c-0.214-0.056-0.441-0.154-0.687-0.294
			c-0.115-0.06-0.284-0.175-0.482-0.348L36.118,128.794z M36.878,123.976l-1.203,1.246l0.056,0.056
			c0.207,0.185,0.387,0.255,0.598,0.216c0.205-0.045,0.432-0.174,0.69-0.376l0.068,0.073l-1.529,1.599l-0.081-0.086
			c0.143-0.199,0.255-0.371,0.289-0.541c0.056-0.155,0.056-0.297,0.022-0.401c-0.042-0.129-0.128-0.244-0.269-0.382l-0.828,0.855
			c-0.163,0.175-0.244,0.27-0.272,0.329c-0.028,0.056-0.028,0.112-0.017,0.174c0.017,0.053,0.073,0.124,0.163,0.211l0.171,0.176
			c0.283,0.267,0.567,0.423,0.867,0.454c0.3,0.034,0.617-0.053,0.945-0.241l0.07,0.073l-1.061,0.842l-2.597-2.516l0.09-0.104
			l0.095,0.104c0.07,0.101,0.154,0.14,0.243,0.174c0.071,0.009,0.138,0.009,0.2-0.034c0.056-0.011,0.14-0.095,0.299-0.252
			l1.933-2.009c0.126-0.138,0.197-0.21,0.227-0.252c0.028-0.062,0.053-0.132,0.028-0.199c-0.019-0.104-0.073-0.2-0.156-0.29
			l-0.099-0.097l0.07-0.076l2.533,2.418l-0.889,0.914l-0.088-0.084c0.171-0.258,0.267-0.485,0.287-0.659
			c0.017-0.171-0.028-0.339-0.115-0.527c-0.07-0.099-0.199-0.275-0.426-0.485L36.878,123.976z M32.732,125.278l-0.084,0.081
			l-1.462-1.63l0.073-0.07l0.098,0.087c0.087,0.104,0.156,0.143,0.227,0.185c0.075,0.014,0.129,0.014,0.202-0.011
			c0.059-0.031,0.171-0.104,0.311-0.243l2.06-1.857c0.176-0.148,0.26-0.23,0.288-0.305c0.028-0.04,0.028-0.112,0-0.196
			c0-0.071-0.056-0.16-0.128-0.244l-0.101-0.099l0.084-0.073l1.464,1.613l-0.09,0.088l-0.084-0.099
			c-0.087-0.088-0.163-0.16-0.244-0.188c-0.056-0.009-0.126-0.009-0.188,0.017c-0.056,0.012-0.174,0.096-0.311,0.244l-2.059,1.843
			c-0.174,0.14-0.256,0.255-0.292,0.303c-0.019,0.053-0.019,0.124-0.008,0.197c0.008,0.084,0.07,0.153,0.14,0.243L32.732,125.278z
			 M34.046,120.472l-1.148,0.918l-0.056-0.104c0.23-0.297,0.348-0.615,0.348-0.94c0-0.317-0.084-0.59-0.292-0.847
			c-0.154-0.202-0.365-0.342-0.629-0.415c-0.236-0.068-0.499-0.068-0.755,0c-0.328,0.101-0.645,0.272-0.928,0.516
			c-0.3,0.244-0.544,0.491-0.718,0.76c-0.168,0.272-0.257,0.524-0.257,0.786c0,0.255,0.106,0.516,0.308,0.757
			c0.151,0.201,0.351,0.356,0.581,0.454c0.23,0.107,0.524,0.146,0.903,0.156l-0.272,0.23c-0.342-0.028-0.646-0.102-0.892-0.23
			c-0.239-0.126-0.466-0.328-0.682-0.566c-0.289-0.359-0.463-0.732-0.544-1.119c-0.076-0.385-0.031-0.738,0.098-1.099
			c0.146-0.373,0.376-0.668,0.676-0.901c0.297-0.258,0.657-0.415,1.083-0.486c0.403-0.058,0.804-0.028,1.172,0.112
			c0.39,0.16,0.69,0.401,0.945,0.702c0.183,0.227,0.345,0.533,0.43,0.847c0.07,0.199,0.109,0.312,0.143,0.356
			c0.048,0.053,0.101,0.084,0.168,0.084c0.061,0,0.151-0.017,0.247-0.072L34.046,120.472z M30.014,115.511
			c-0.227-0.331-0.547-0.468-0.967-0.429c-0.379,0.045-0.803,0.23-1.319,0.559c-0.603,0.384-0.976,0.785-1.133,1.187
			c-0.098,0.286-0.071,0.557,0.104,0.83c0.109,0.16,0.256,0.286,0.412,0.357c0.216,0.073,0.471,0.073,0.755,0
			c0.317-0.071,0.662-0.227,1.052-0.5c0.466-0.286,0.783-0.572,0.95-0.802c0.175-0.242,0.292-0.469,0.292-0.66
			C30.161,115.853,30.118,115.67,30.014,115.511z M30.161,115.354c0.367,0.559,0.499,1.116,0.367,1.686
			c-0.112,0.572-0.443,1.047-0.959,1.389c-0.457,0.289-0.923,0.429-1.442,0.387c-0.671-0.06-1.215-0.402-1.616-1.03
			c-0.415-0.646-0.513-1.274-0.297-1.888c0.154-0.505,0.465-0.906,0.94-1.2c0.513-0.342,1.074-0.457,1.655-0.328
			C29.384,114.495,29.829,114.838,30.161,115.354z M28.626,112.852l-1.214,0.715l-0.056-0.098c0.282-0.23,0.454-0.488,0.53-0.802
			c0.07-0.317,0.042-0.587-0.076-0.813c-0.109-0.191-0.238-0.306-0.398-0.371c-0.155-0.042-0.301-0.03-0.424,0.04
			c-0.089,0.045-0.151,0.098-0.191,0.188c-0.058,0.084-0.098,0.213-0.117,0.385c-0.008,0.115-0.008,0.37,0.02,0.757
			c0.011,0.559-0.028,0.957-0.129,1.201c-0.101,0.255-0.272,0.457-0.527,0.588c-0.317,0.155-0.629,0.197-1.002,0.085
			c-0.345-0.127-0.626-0.356-0.83-0.716c-0.06-0.115-0.115-0.244-0.146-0.359c-0.025-0.112-0.053-0.27-0.07-0.455
			c-0.014-0.101-0.045-0.187-0.07-0.257c-0.029-0.045-0.073-0.073-0.13-0.115c-0.073-0.026-0.146-0.042-0.244-0.026l-0.056-0.104
			l1.4-0.771l0.059,0.098c-0.342,0.303-0.572,0.617-0.657,0.959c-0.075,0.343-0.048,0.628,0.117,0.901
			c0.098,0.199,0.236,0.328,0.424,0.39c0.174,0.054,0.331,0.037,0.485-0.03c0.09-0.06,0.143-0.13,0.202-0.213
			c0.059-0.087,0.097-0.202,0.115-0.331c0.027-0.143,0.027-0.359,0.027-0.673c-0.027-0.415-0.02-0.738,0.011-0.957
			c0.045-0.202,0.098-0.386,0.202-0.544c0.104-0.157,0.241-0.286,0.415-0.384c0.283-0.155,0.601-0.187,0.917-0.087
			c0.34,0.101,0.584,0.3,0.77,0.629c0.055,0.115,0.117,0.243,0.143,0.372c0.028,0.085,0.028,0.213,0.056,0.37
			c0,0.157,0.016,0.261,0.045,0.314c0.028,0.045,0.073,0.07,0.101,0.087c0.056,0,0.145,0,0.255-0.042L28.626,112.852z
			 M93.318,25.289c0.455,0.803,0.544,1.686,0.258,2.673c-0.258,0.984-0.83,1.7-1.632,2.129c-0.799,0.443-1.689,0.533-2.628,0.247
			c-1.001-0.284-1.719-0.842-2.143-1.703c-0.432-0.796-0.49-1.632-0.227-2.516c0.282-0.984,0.8-1.703,1.595-2.162
			c0.828-0.471,1.714-0.542,2.688-0.27C92.173,23.957,92.892,24.487,93.318,25.289z M91.201,29.193
			c0.289-0.416,0.517-0.973,0.743-1.703c0.287-0.999,0.345-1.786,0.171-2.387c-0.14-0.589-0.452-0.96-0.971-1.089
			c-0.717-0.216-1.313,0.073-1.829,0.847c-0.264,0.401-0.485,0.954-0.69,1.686c-0.225,0.729-0.312,1.329-0.312,1.817
			c0.029,0.912,0.399,1.456,1.091,1.655C90.115,30.222,90.716,29.948,91.201,29.193z M56.975,25.376
			c0.43-0.844,1.117-1.419,2.09-1.717c0.373-0.115,0.774-0.155,1.203-0.129c0.426,0.014,0.682,0.014,0.786-0.014
			c0.092-0.03,0.171-0.084,0.216-0.171c0.027-0.086,0.053-0.202,0.036-0.356l0.281-0.087l0.651,2.191l-0.23,0.068
			c-0.382-0.41-0.71-0.715-1.03-0.914c-0.6-0.367-1.172-0.471-1.711-0.3c-0.603,0.185-0.973,0.569-1.088,1.189
			c-0.116,0.597-0.031,1.369,0.269,2.311c0.247,0.785,0.575,1.43,1.018,1.974c0.429,0.516,1.029,0.67,1.77,0.46
			c0.39-0.132,0.629-0.306,0.718-0.5c0.053-0.117,0.042-0.277-0.017-0.474l-0.303-0.973c-0.081-0.297-0.227-0.443-0.427-0.488
			c-0.126-0.009-0.372,0.03-0.712,0.115l-0.073-0.23l3.19-0.971l0.081,0.246c-0.312,0.096-0.513,0.231-0.601,0.385
			c-0.056,0.14-0.039,0.367,0.062,0.698l0.356,1.187c-0.16,0.185-0.457,0.432-0.876,0.687c-0.419,0.258-0.91,0.491-1.488,0.66
			c-1.03,0.311-1.969,0.258-2.771-0.213c-0.772-0.435-1.285-1.102-1.571-2.034C56.516,27.045,56.574,26.172,56.975,25.376z
			 M65.154,28.761c0.314-0.068,0.53-0.157,0.628-0.286c0.112-0.109,0.146-0.37,0.087-0.726l-0.603-4.263
			c-0.055-0.371-0.14-0.595-0.312-0.699c-0.097-0.059-0.313-0.068-0.658-0.068l-0.028-0.244l3.099-0.431
			c0.649-0.087,1.178-0.087,1.588-0.011c0.819,0.171,1.279,0.598,1.375,1.313c0.073,0.513-0.056,0.957-0.401,1.315
			c-0.258,0.272-0.572,0.46-0.884,0.558l2.328,2.485c0.07,0.057,0.129,0.101,0.182,0.135c0.082,0,0.149,0,0.23,0l0.031,0.238
			l-1.972,0.275l-2.432-2.749l-0.241,0.048l0.269,1.899c0.034,0.328,0.129,0.541,0.255,0.653c0.146,0.107,0.382,0.132,0.718,0.107
			l0.028,0.235l-3.257,0.46L65.154,28.761z M68.441,24.888c0.264-0.217,0.328-0.629,0.245-1.228
			c-0.062-0.374-0.141-0.671-0.272-0.873c-0.227-0.343-0.6-0.468-1.055-0.41c-0.264,0.04-0.435,0.098-0.508,0.182
			c-0.068,0.071-0.095,0.186-0.068,0.332l0.34,2.44C67.757,25.233,68.186,25.092,68.441,24.888z M75.844,21.502v0.255
			c-0.373,0-0.628,0.045-0.755,0.16c-0.129,0.099-0.186,0.328-0.213,0.713l-0.061,3.259c0,0.488,0.061,0.872,0.174,1.147
			c0.207,0.513,0.606,0.757,1.2,0.768c0.746,0.014,1.26-0.255,1.529-0.802c0.157-0.314,0.246-0.724,0.246-1.271l0.056-2.987
			c0-0.359-0.056-0.586-0.184-0.713c-0.129-0.146-0.373-0.23-0.747-0.275v-0.241l2.143,0.042v0.243
			c-0.326,0.06-0.525,0.129-0.628,0.23c-0.095,0.067-0.154,0.269-0.154,0.58l-0.057,3.119c-0.018,0.831-0.227,1.459-0.628,1.905
			c-0.401,0.44-1.029,0.657-1.893,0.643c-1.125-0.017-1.885-0.371-2.286-1.043c-0.21-0.359-0.311-0.819-0.311-1.389l0.058-3.257
			c0.025-0.362-0.031-0.588-0.129-0.687c-0.084-0.101-0.304-0.163-0.648-0.214v-0.246L75.844,21.502z M83.84,25.362
			c0.326-0.144,0.556-0.545,0.642-1.189c0.085-0.427,0.054-0.799-0.028-1.099c-0.118-0.287-0.373-0.469-0.802-0.533
			c-0.179-0.026-0.328-0.026-0.426,0.019c-0.089,0.012-0.128,0.099-0.154,0.227l-0.422,2.589
			C83.226,25.446,83.614,25.446,83.84,25.362z M79.824,28.007c0.314,0.025,0.525-0.014,0.653-0.099
			c0.13-0.09,0.219-0.317,0.269-0.662l0.69-4.24c0.057-0.376,0.027-0.62-0.062-0.718c-0.109-0.115-0.308-0.214-0.597-0.286
			l0.033-0.245l3.086,0.472c0.842,0.148,1.442,0.362,1.815,0.704c0.401,0.345,0.544,0.825,0.429,1.484
			c-0.058,0.304-0.168,0.603-0.401,0.847c-0.199,0.238-0.513,0.426-0.914,0.544c-0.313,0.07-0.628,0.081-0.928,0.07
			c-0.283-0.031-0.716-0.07-1.298-0.174l-0.275,1.786c-0.057,0.356-0.037,0.6,0.058,0.729c0.099,0.132,0.315,0.228,0.643,0.286
			l-0.042,0.255l-3.201-0.513L79.824,28.007z M125.74,109.326c4.317-8.056,6.773-17.247,6.773-27.012
			c0-24.231-15.062-44.943-36.362-53.267v-1.329c21.984,8.392,37.593,29.681,37.593,54.597c0,9.739-2.402,18.917-6.603,27.012
			H125.74z M54.515,29.047c-21.3,8.325-36.366,29.036-36.366,53.267c0,9.764,2.443,18.956,6.765,27.012h-1.391
			c-4.233-8.095-6.603-17.273-6.603-27.012c0-24.916,15.612-46.205,37.594-54.597V29.047z M82.523,131.196l0.745-5.163l-1.225,0.216
			c-0.49,0.084-0.835,0.215-1.049,0.387c-0.16,0.1-0.269,0.3-0.328,0.555l-0.171,0.031l0.112-1.902l3.536-0.628l-0.952,6.392
			L82.523,131.196z M69.811,125.174l-0.839,4.832c-0.073,0.362-0.084,0.59-0.073,0.716c0.014,0.099,0.073,0.205,0.146,0.272
			c0.115,0.089,0.255,0.143,0.482,0.188l0.143,0.014l-0.045,0.157l-3.097-0.541l0.027-0.158l0.137,0.029
			c0.264,0.039,0.447,0.039,0.576,0c0.117-0.048,0.205-0.104,0.254-0.202c0.062-0.085,0.113-0.314,0.171-0.702l0.547-3.057
			c0.061-0.275,0.07-0.446,0.061-0.519c-0.019-0.067-0.061-0.137-0.117-0.197c-0.07-0.073-0.143-0.098-0.233-0.132
			c-0.155-0.011-0.339,0-0.567,0.059l-0.061-0.174l2.361-0.609L69.811,125.174z M71.103,131.667v-0.112
			c0.482-0.087,0.914-0.245,1.257-0.432c0.369-0.197,0.642-0.469,0.858-0.755c0.23-0.314,0.367-0.687,0.485-1.105
			c-0.202,0.084-0.345,0.146-0.485,0.17c-0.132,0.034-0.261,0.06-0.401,0.034c-0.457-0.017-0.825-0.204-1.114-0.549
			c-0.286-0.343-0.402-0.796-0.376-1.372c0.017-0.399,0.115-0.737,0.309-1.071c0.179-0.332,0.409-0.559,0.724-0.716
			c0.313-0.171,0.642-0.244,0.973-0.228c0.343,0.031,0.671,0.132,0.971,0.342c0.302,0.228,0.539,0.533,0.698,0.914
			c0.174,0.401,0.241,0.833,0.214,1.318c-0.02,0.626-0.214,1.231-0.539,1.784c-0.345,0.562-0.819,1.004-1.431,1.33
			C72.629,131.538,71.903,131.681,71.103,131.667z M73.793,128.893c0.04-0.317,0.065-0.611,0.081-0.87
			c0.028-0.536,0-1.032-0.115-1.5c-0.056-0.264-0.14-0.457-0.272-0.59c-0.073-0.059-0.174-0.098-0.283-0.098
			c-0.157-0.017-0.272,0.039-0.359,0.151c-0.126,0.174-0.199,0.508-0.227,1.004c-0.028,0.799,0.029,1.388,0.2,1.699
			c0.115,0.202,0.286,0.317,0.516,0.317C73.448,129.008,73.586,128.977,73.793,128.893z M76.901,128.666l-0.009-0.156
			c0.327-0.13,0.557-0.228,0.672-0.335c0.112-0.081,0.229-0.227,0.3-0.41c0.07-0.187,0.113-0.356,0.101-0.544
			c-0.031-0.23-0.147-0.432-0.317-0.586c-0.198-0.172-0.429-0.248-0.684-0.214c-0.429,0.042-0.738,0.281-1.001,0.741l-0.171-0.04
			c0.171-0.505,0.398-0.89,0.718-1.175c0.312-0.283,0.669-0.432,1.07-0.474c0.412-0.04,0.755,0.059,1.059,0.287
			c0.297,0.227,0.454,0.516,0.481,0.858c0.018,0.218-0.028,0.443-0.138,0.659c-0.097,0.21-0.275,0.401-0.532,0.589
			c0.353,0.129,0.642,0.308,0.844,0.556c0.199,0.23,0.317,0.516,0.339,0.897c0.062,0.619-0.119,1.161-0.541,1.632
			c-0.412,0.488-0.985,0.761-1.758,0.831c-0.481,0.042-0.873-0.017-1.109-0.16c-0.194-0.115-0.292-0.241-0.292-0.427
			c-0.027-0.148,0.029-0.261,0.119-0.359c0.084-0.115,0.183-0.171,0.312-0.183c0.089,0,0.199,0,0.284,0.042
			c0.041,0.025,0.227,0.14,0.532,0.342c0.298,0.213,0.587,0.297,0.83,0.272c0.21-0.016,0.393-0.115,0.539-0.303
			c0.146-0.171,0.208-0.412,0.171-0.667c-0.025-0.421-0.21-0.775-0.525-1.077C77.891,128.938,77.463,128.733,76.901,128.666z"/>
	</g>
	<g>
		<path fill="#A58964" d="M75.332,163.641c-39.805,0-72.836-31.096-75.198-70.792l-0.134-4.488L0,0h3.74v88.306l0.13,4.377
			C6.112,130.35,37.503,159.9,75.332,159.9c37.755,0,69.191-29.521,71.594-67.222V0h3.74l-0.004,92.855
			C148.164,132.548,115.074,163.641,75.332,163.641z"/>
	</g>
</g>
</svg>
