<svg xmlns="http://www.w3.org/2000/svg" viewBox="0 0 144 144"><defs><style>.cls-1{fill:#fff;}.cls-2{fill:#86754d;}.cls-3{fill:#004780;}.cls-3,.cls-4{fill-rule:evenodd;}.cls-4{fill:#004d3b;}</style></defs><title>Asset 1</title><g id="Layer_2" data-name="Layer 2"><g id="Layer_1-2" data-name="Layer 1"><circle class="cls-1" cx="72" cy="72" r="72"></circle><path class="cls-2" d="M81,110.16,81.2,35.4c16.88,5.51,28.24,18.79,28.33,37.09C109.37,91.4,98.2,104.06,81,110.16M92.24,90.09c7.93-11,9.57-23,0-35.16ZM76.72,34.77l.39,0,.16,75.81-1.38.11a33.15,33.15,0,0,1-9.46-.2V34.86a45.18,45.18,0,0,1,5.47-.39,42.26,42.26,0,0,1,4.82.31M34.54,77.58a48.75,48.75,0,0,1-.28-4.87C34.27,55,45.5,41,62.1,35.75V60.18h-10v-7.4c-4.69,3.68-6.57,9.32-7.61,14.5H62.14v42.38C48.46,105.45,40.09,96.82,35.7,83.29H46.42C47.67,86.85,49,89.46,52,91.83V77.58Z"></path><path class="cls-3" d="M82.28,36.88a37.11,37.11,0,0,1,26.18,35.6c-.16,18.24-11.29,30.79-26.35,36.15ZM91.14,52l0,41.26c10.31-12.56,12.89-26.93,0-41.26M67.5,109.58V35.81a36.47,36.47,0,0,1,8.53,0l.16,73.86-.4,0a29.09,29.09,0,0,1-8.29-.08M45.66,84.37a17.12,17.12,0,0,0,7.46,9.53V76.5H35.52a37.86,37.86,0,0,1-.17-3.79A37.11,37.11,0,0,1,61,37.21V59.1H53.17V50.73c-6.79,4.1-8.89,11.54-10,17.62H61.06V108.2A36.48,36.48,0,0,1,37.18,84.36Z"></path><path class="cls-4" d="M31,72.73A40.88,40.88,0,1,0,71.9,31.85,40.88,40.88,0,0,0,31,72.73m-12.64,0A53.53,53.53,0,1,1,71.9,126.26,53.53,53.53,0,0,1,18.38,72.73"></path><path class="cls-2" d="M71.9,20a52.75,52.75,0,1,0,52.75,52.75A52.75,52.75,0,0,0,71.9,20m0-1.55a54.3,54.3,0,1,1-54.3,54.3,54.3,54.3,0,0,1,54.3-54.3m0,3.09A51.21,51.21,0,1,1,20.69,72.73,51.21,51.21,0,0,1,71.9,21.52m0,.5a50.71,50.71,0,1,0,50.71,50.71A50.71,50.71,0,0,0,71.9,22m0,8.13A42.58,42.58,0,1,1,29.32,72.73,42.58,42.58,0,0,1,71.9,30.15m0,.52A42.06,42.06,0,1,0,114,72.73,42.06,42.06,0,0,0,71.9,30.67"></path><path class="cls-2" d="M125,105.8l-1.66-.27.92,1.42Zm.27,0-.87,1.34.26.4a1,1,0,0,0,.25.27.3.3,0,0,0,.32,0,1.3,1.3,0,0,0,.31-.33l.1.07-.82,1.26-.1-.07a.68.68,0,0,0,.05-.44,2.67,2.67,0,0,0-.36-.69l-2.12-3.29,0-.05,4,.63a2.23,2.23,0,0,0,.76,0,.53.53,0,0,0,.27-.2l.1.07-1.19,1.83-.1-.07,0-.08a.69.69,0,0,0,.14-.35.18.18,0,0,0-.09-.14l-.11,0-.26-.05ZM119.12,109l3.56-.11-1.54-1.16a.9.9,0,0,0-.51-.23.65.65,0,0,0-.47.32l-.1-.07.9-1.19.1.07a1.12,1.12,0,0,0-.16.37.38.38,0,0,0,.06.24,1.29,1.29,0,0,0,.32.31l3,2.24-.07.09-4.82.2,2.27,1.71a.63.63,0,0,0,.52.17.66.66,0,0,0,.35-.25l.06-.08.1.07-1,1.28-.1-.07a.73.73,0,0,0,.19-.51.7.7,0,0,0-.32-.42l-2.52-1.9h-.15a.88.88,0,0,0-.34.06.77.77,0,0,0-.24.21l-.1-.07Zm-.22,4.87-1.6-.5.71,1.53Zm.26.07-1,1.2.2.43a1,1,0,0,0,.21.31.3.3,0,0,0,.31.07,1.3,1.3,0,0,0,.35-.28l.09.08-1,1.13-.09-.08a.68.68,0,0,0,.11-.43,2.68,2.68,0,0,0-.26-.73l-1.63-3.56,0,0,3.84,1.18a2.22,2.22,0,0,0,.75.14.52.52,0,0,0,.3-.16l.09.08L120,114.92l-.09-.08.06-.07a.69.69,0,0,0,.19-.33.18.18,0,0,0-.07-.15l-.11-.06-.25-.09Zm-4.4.06,1.06,1.13-.09.09a1.64,1.64,0,0,0-1-.31,1.4,1.4,0,0,0-.88.38,1.35,1.35,0,0,0-.4.71,1.41,1.41,0,0,0,.05.81,2.83,2.83,0,0,0,.6,1,3.68,3.68,0,0,0,.86.7,1.46,1.46,0,0,0,.86.22,1.35,1.35,0,0,0,.79-.39,1.65,1.65,0,0,0,.44-.67,2.68,2.68,0,0,0,.11-1l.26.28a2.49,2.49,0,0,1-.19,1,2.43,2.43,0,0,1-.58.78,2.79,2.79,0,0,1-1.13.67,2,2,0,0,1-1.19,0,2.29,2.29,0,0,1-1-.63,2.44,2.44,0,0,1-.52-2.39,2.5,2.5,0,0,1,.68-1.07,2.8,2.8,0,0,1,.87-.54,1.55,1.55,0,0,0,.37-.18.25.25,0,0,0,.08-.18.42.42,0,0,0-.09-.25Zm-.65,6.64.08.09-1.78,1.55-.08-.09.11-.1a.63.63,0,0,0,.19-.26.3.3,0,0,0,0-.21,1.36,1.36,0,0,0-.24-.34l-1.93-2.22a1.47,1.47,0,0,0-.31-.3.33.33,0,0,0-.21,0,.58.58,0,0,0-.27.15l-.11.1-.08-.09,1.78-1.55.08.09-.11.1a.63.63,0,0,0-.19.26.32.32,0,0,0,0,.21,1.34,1.34,0,0,0,.24.34l1.93,2.22a1.47,1.47,0,0,0,.31.3.36.36,0,0,0,.21,0,.62.62,0,0,0,.27-.15Zm-7.25.26,3.44.88-1.16-1.54a.9.9,0,0,0-.42-.37.65.65,0,0,0-.54.18l-.07-.1,1.19-.9.07.1a1.14,1.14,0,0,0-.25.31.38.38,0,0,0,0,.24,1.3,1.3,0,0,0,.23.39l2.24,3-.09.07L106.82,122l1.71,2.27a.63.63,0,0,0,.45.31.66.66,0,0,0,.41-.14l.08-.06.07.1-1.28,1-.07-.1a.73.73,0,0,0,.32-.43.71.71,0,0,0-.19-.49l-1.9-2.52-.15,0a.87.87,0,0,0-.34,0,.76.76,0,0,0-.29.14l-.07-.1Zm.92,4.71.07.1-2,1.29-.07-.1.13-.08a.63.63,0,0,0,.23-.23.3.3,0,0,0,0-.21,1.37,1.37,0,0,0-.2-.37l-1.6-2.47a1.46,1.46,0,0,0-.26-.34.32.32,0,0,0-.21,0,.58.58,0,0,0-.29.11l-.13.08-.07-.1,2-1.29.07.1-.13.08a.63.63,0,0,0-.23.23.32.32,0,0,0,0,.21,1.36,1.36,0,0,0,.2.37l1.6,2.47a1.45,1.45,0,0,0,.26.34.36.36,0,0,0,.21,0,.62.62,0,0,0,.29-.11Zm-5.71,1.88-.35-3.18,1.6-.89.06.11-.13.07a.63.63,0,0,0-.25.22.33.33,0,0,0,0,.2,1.33,1.33,0,0,0,.17.38l1.42,2.58a1.46,1.46,0,0,0,.24.36.33.33,0,0,0,.2.06.62.62,0,0,0,.29-.09l.13-.07.06.11-2.06,1.15-.06-.11.13-.07a.64.64,0,0,0,.25-.22.33.33,0,0,0,0-.2,1.36,1.36,0,0,0-.17-.38l-1.6-2.91.46,4.42-.07,0-3.49-2.69,1.52,2.76a2.73,2.73,0,0,0,.21.35.48.48,0,0,0,.29.15.8.8,0,0,0,.45-.13l.06.11-1.35.75-.06-.11,0,0a.73.73,0,0,0,.22-.18.47.47,0,0,0,.1-.22.64.64,0,0,0,0-.26l-.16-.3-1.37-2.48a1.41,1.41,0,0,0-.24-.35.32.32,0,0,0-.2-.06.6.6,0,0,0-.3.09l-.12.07-.06-.11,1.61-.9Zm-6.35.1a1,1,0,0,0-.62.95,3.34,3.34,0,0,0,.33,1.47,2.84,2.84,0,0,0,1,1.4.92.92,0,0,0,.88,0,1,1,0,0,0,.46-.38,1.37,1.37,0,0,0,.16-.8,3.76,3.76,0,0,0-.32-1.18,4,4,0,0,0-.67-1.16,1.28,1.28,0,0,0-.63-.41,1,1,0,0,0-.61.07m-.12-.18a2.21,2.21,0,0,1,3.11,1.15,2.39,2.39,0,0,1,.12,1.58,2.53,2.53,0,0,1-3.44,1.52,2.35,2.35,0,0,1-1.08-1.21,2.24,2.24,0,0,1,0-1.8,2.2,2.2,0,0,1,1.3-1.24m-5.17,2.37,1.13,3.31a1.22,1.22,0,0,0,.13.31.19.19,0,0,0,.12.06.55.55,0,0,0,.26,0,1,1,0,0,0,.68-.64,2.57,2.57,0,0,0-.13-1.63,3,3,0,0,0-.7-1.22,1.15,1.15,0,0,0-.7-.34,2.16,2.16,0,0,0-.78.17m-.26,4.57,0-.12.14,0a.61.61,0,0,0,.26-.15.39.39,0,0,0,.09-.21,1.58,1.58,0,0,0-.11-.4l-.95-2.79a1.46,1.46,0,0,0-.17-.39.32.32,0,0,0-.19-.09.58.58,0,0,0-.3,0l-.14,0,0-.12,1.9-.66a3.23,3.23,0,0,1,1.3-.22,1.89,1.89,0,0,1,1.12.47,2.4,2.4,0,0,1,.69,1.06,2.43,2.43,0,0,1,.14.88,2,2,0,0,1-.16.75,2,2,0,0,1-.4.58,3,3,0,0,1-.65.48,3.64,3.64,0,0,1-.59.25Zm-2.82-.81.18,1.57-3.89.92,0-.12.15,0a.63.63,0,0,0,.29-.14.3.3,0,0,0,.09-.19,1.36,1.36,0,0,0-.06-.41l-.65-2.88a1.47,1.47,0,0,0-.13-.41.32.32,0,0,0-.18-.11.58.58,0,0,0-.31,0l-.15,0,0-.12,2.34-.55,0,.12-.19,0a.63.63,0,0,0-.29.14.32.32,0,0,0-.1.19,1.36,1.36,0,0,0,.06.41l.63,2.79a1.46,1.46,0,0,0,.14.42.26.26,0,0,0,.18.1,1.57,1.57,0,0,0,.4-.06l.37-.09a1.28,1.28,0,0,0,.55-.26,1.12,1.12,0,0,0,.31-.48,3.19,3.19,0,0,0,.15-.86Zm-6.47,1.39-.9-1.42-.45,1.64Zm.15.22-1.57.26-.12.46a1,1,0,0,0,0,.37.3.3,0,0,0,.19.25,1.28,1.28,0,0,0,.45,0l0,.12-1.48.24,0-.12a.68.68,0,0,0,.36-.26,2.74,2.74,0,0,0,.28-.73l1-3.8h.06l2.16,3.38a2.21,2.21,0,0,0,.48.59.52.52,0,0,0,.33.07l0,.12-2.15.35,0-.12h.09a.69.69,0,0,0,.35-.13.18.18,0,0,0,0-.16.4.4,0,0,0,0-.12l-.14-.23Zm-3,1.56v.12l-2.34.22V137h.15a.63.63,0,0,0,.31-.1.31.31,0,0,0,.12-.17,1.38,1.38,0,0,0,0-.42L76,133.3a1.48,1.48,0,0,0-.07-.43.32.32,0,0,0-.16-.13.57.57,0,0,0-.3,0h-.15v-.12l2.34-.22v.12h-.15a.63.63,0,0,0-.31.1.32.32,0,0,0-.12.17,1.36,1.36,0,0,0,0,.42l.24,2.94a1.47,1.47,0,0,0,.07.43.36.36,0,0,0,.16.14.61.61,0,0,0,.31,0Zm-6-3.75.06,2h.19a2.16,2.16,0,0,0,.69-.11.7.7,0,0,0,.35-.32,1.12,1.12,0,0,0,.12-.58.87.87,0,0,0-1-1Zm.07,2.2,0,1.26a1.44,1.44,0,0,0,.06.46.33.33,0,0,0,.16.14,1.05,1.05,0,0,0,.42,0v.12l-2.3.09v-.12a1,1,0,0,0,.42-.07.34.34,0,0,0,.15-.16,1.34,1.34,0,0,0,0-.46L71,133.57a1.32,1.32,0,0,0-.06-.46.31.31,0,0,0-.16-.15,1.06,1.06,0,0,0-.42,0v-.12l2.09-.08a4.54,4.54,0,0,1,1.2.07,1.18,1.18,0,0,1,.63.39,1.1,1.1,0,0,1,.26.7,1.07,1.07,0,0,1-.33.84,1.49,1.49,0,0,1-.63.33l1.13,1.48a2.25,2.25,0,0,0,.31.36.56.56,0,0,0,.32.1v.12l-1.41.06-1.51-2Zm-1.85-2.4L70.19,134h-.12a1.89,1.89,0,0,0-.19-.62.89.89,0,0,0-.33-.32,1.12,1.12,0,0,0-.43-.09l-.33,0-.26,3.46a1.47,1.47,0,0,0,0,.43.36.36,0,0,0,.14.16.62.62,0,0,0,.3.08h.15v.12l-2.35-.15v-.12h.15a.62.62,0,0,0,.32,0,.32.32,0,0,0,.15-.15,1.37,1.37,0,0,0,.07-.41l.26-3.46-.32,0a1,1,0,0,0-.67.15,1.29,1.29,0,0,0-.42.74h-.13l.09-1.21Zm-4.87-.44-.15,1.49-.13,0a1.51,1.51,0,0,0-.36-1,1.17,1.17,0,0,0-.76-.44.77.77,0,0,0-.56.12.55.55,0,0,0-.25.39.5.5,0,0,0,0,.27,1.11,1.11,0,0,0,.27.34,6.92,6.92,0,0,0,.66.47,3.16,3.16,0,0,1,1,.85,1.24,1.24,0,0,1,.17.82,1.29,1.29,0,0,1-.56.91,1.58,1.58,0,0,1-1.16.27,1.78,1.78,0,0,1-.39-.09,3,3,0,0,1-.45-.22.72.72,0,0,0-.25-.1.33.33,0,0,0-.19,0,.47.47,0,0,0-.18.18H62l.21-1.69h.12a1.94,1.94,0,0,0,.42,1.15,1.31,1.31,0,0,0,.84.48.84.84,0,0,0,.61-.13.63.63,0,0,0,.28-.44.61.61,0,0,0,0-.32.93.93,0,0,0-.22-.31,3.73,3.73,0,0,0-.56-.42,5.21,5.21,0,0,1-.81-.61,1.58,1.58,0,0,1-.35-.52,1.19,1.19,0,0,1-.07-.59,1.23,1.23,0,0,1,.51-.86,1.39,1.39,0,0,1,1-.26,1.68,1.68,0,0,1,.41.1,2,2,0,0,1,.36.19.9.9,0,0,0,.3.14.18.18,0,0,0,.14,0,.62.62,0,0,0,.12-.24Zm-7.75-1.17,2.27.43,0,.12-.11,0a.8.8,0,0,0-.37,0,.32.32,0,0,0-.17.12,1.71,1.71,0,0,0-.13.46l-.43,2.16a2.29,2.29,0,0,0-.07.8.76.76,0,0,0,.23.38,1,1,0,0,0,.49.23,1.13,1.13,0,0,0,.64,0,1,1,0,0,0,.47-.37,2.75,2.75,0,0,0,.32-1l.36-1.8a1.07,1.07,0,0,0,0-.44A.37.37,0,0,0,61,132a.94.94,0,0,0-.4-.15l0-.12,1.52.29,0,.12-.09,0a.6.6,0,0,0-.32,0,.44.44,0,0,0-.22.19,1.16,1.16,0,0,0-.12.37l-.33,1.68a4.41,4.41,0,0,1-.33,1.1,1.28,1.28,0,0,1-.62.54,1.84,1.84,0,0,1-1.14.08,2.08,2.08,0,0,1-.85-.32,1.31,1.31,0,0,1-.49-.65,1.88,1.88,0,0,1,0-.91l.43-2.16a1.54,1.54,0,0,0,.05-.48.32.32,0,0,0-.12-.18.9.9,0,0,0-.37-.13Zm-2.93-.61-1,3.36a1.24,1.24,0,0,0-.08.33.19.19,0,0,0,.06.12.53.53,0,0,0,.23.12,1,1,0,0,0,.92-.12,2.6,2.6,0,0,0,.85-1.4,3,3,0,0,0,.15-1.4,1.15,1.15,0,0,0-.36-.69,2.13,2.13,0,0,0-.73-.32m-2.89,3.57,0-.12.14,0a.6.6,0,0,0,.3,0,.39.39,0,0,0,.2-.12,1.6,1.6,0,0,0,.15-.39l.88-2.83a1.5,1.5,0,0,0,.09-.42.32.32,0,0,0-.1-.19.57.57,0,0,0-.27-.15l-.14,0,0-.12,1.92.58a3.19,3.19,0,0,1,1.17.58,1.89,1.89,0,0,1,.63,1,2.44,2.44,0,0,1-.07,1.27,2.47,2.47,0,0,1-.41.79,2.06,2.06,0,0,1-.57.52,2,2,0,0,1-.66.24,3,3,0,0,1-.81,0,3.6,3.6,0,0,1-.62-.14Zm-1.68-5.43,1.05,3.39.7-1.81a.92.92,0,0,0,.09-.55.63.63,0,0,0-.43-.36l0-.11,1.38.53,0,.11a1.11,1.11,0,0,0-.39,0,.39.39,0,0,0-.21.12,1.33,1.33,0,0,0-.21.4l-1.36,3.5-.11,0-1.47-4.58-1,2.67a.64.64,0,0,0,0,.55.65.65,0,0,0,.33.27l.1,0,0,.11L47,132.34l0-.11a.56.56,0,0,0,.86-.38l1.15-3,0-.15a.87.87,0,0,0-.15-.31.75.75,0,0,0-.27-.17l0-.11ZM46.65,132l-.05.11-2.12-1,.05-.11.13.06a.62.62,0,0,0,.31.07.3.3,0,0,0,.19-.09,1.4,1.4,0,0,0,.21-.36L46.63,128a1.5,1.5,0,0,0,.15-.41.32.32,0,0,0-.07-.2.57.57,0,0,0-.24-.19l-.14-.06.05-.11,2.12,1-.05.11-.13-.06A.62.62,0,0,0,48,128a.32.32,0,0,0-.19.09,1.38,1.38,0,0,0-.21.36l-1.26,2.69a1.49,1.49,0,0,0-.15.41.36.36,0,0,0,.07.2.61.61,0,0,0,.25.18Zm-4.84-7.16-1.77,3a1.24,1.24,0,0,0-.15.31.19.19,0,0,0,0,.13.53.53,0,0,0,.2.17,1,1,0,0,0,.92.09,2.6,2.6,0,0,0,1.14-1.18,3,3,0,0,0,.46-1.34,1.15,1.15,0,0,0-.2-.75,2.12,2.12,0,0,0-.63-.48m-3.61,2.83.06-.11.13.07a.6.6,0,0,0,.29.1.38.38,0,0,0,.22-.07,1.6,1.6,0,0,0,.24-.35l1.49-2.57a1.48,1.48,0,0,0,.19-.39.32.32,0,0,0-.05-.2.57.57,0,0,0-.22-.21l-.13-.07.06-.11,1.74,1a3.18,3.18,0,0,1,1,.83,1.89,1.89,0,0,1,.38,1.16,2.45,2.45,0,0,1-.35,1.22,2.48,2.48,0,0,1-.57.68A2.05,2.05,0,0,1,42,129a2,2,0,0,1-.69.08,3,3,0,0,1-.79-.17,3.6,3.6,0,0,1-.57-.28ZM37,125l.35-1.65-1.46.88Zm0,.27-1.3-.9-.41.25a1,1,0,0,0-.28.24.3.3,0,0,0,0,.32,1.26,1.26,0,0,0,.31.32l-.07.1L34,124.75l.07-.1a.67.67,0,0,0,.44.06,2.74,2.74,0,0,0,.71-.34l3.38-2,.05,0-.8,4a2.25,2.25,0,0,0-.07.76.51.51,0,0,0,.19.28l-.07.1-1.77-1.24.07-.1.07.05a.67.67,0,0,0,.34.15.18.18,0,0,0,.15-.08.41.41,0,0,0,.05-.11s0-.11.06-.26Zm-2.84-5.94L31.86,122a1.25,1.25,0,0,0-.2.28.19.19,0,0,0,0,.13.53.53,0,0,0,.17.2,1,1,0,0,0,.89.25,2.6,2.6,0,0,0,1.33-1,3,3,0,0,0,.69-1.24,1.16,1.16,0,0,0-.07-.78,2.12,2.12,0,0,0-.54-.58m-4,2.17.08-.09.11.1a.6.6,0,0,0,.27.14.39.39,0,0,0,.23,0,1.62,1.62,0,0,0,.29-.3L33,119a1.51,1.51,0,0,0,.25-.35.32.32,0,0,0,0-.21.57.57,0,0,0-.18-.24l-.11-.1L33,118l1.53,1.29a3.18,3.18,0,0,1,.85,1,1.9,1.9,0,0,1,.17,1.2,2.62,2.62,0,0,1-1.24,1.72,2,2,0,0,1-.73.26,2,2,0,0,1-.7,0,3,3,0,0,1-.75-.31,3.6,3.6,0,0,1-.51-.38Zm.8-5.15-1.28,1.32.06.06a.7.7,0,0,0,.63.23,1.67,1.67,0,0,0,.73-.4l.09.09-1.64,1.7-.09-.09a1.76,1.76,0,0,0,.32-.57.7.7,0,0,0,0-.44,1.09,1.09,0,0,0-.29-.4l-.88.92a2,2,0,0,0-.3.35.28.28,0,0,0,0,.18.55.55,0,0,0,.16.23l.19.19a1.59,1.59,0,0,0,.92.49,1.63,1.63,0,0,0,1-.26l.09.08-1.14.89-2.78-2.69.09-.09.11.1a.61.61,0,0,0,.27.17.3.3,0,0,0,.21,0,1.4,1.4,0,0,0,.32-.28L29.74,116a2.43,2.43,0,0,0,.25-.28.32.32,0,0,0,0-.21.56.56,0,0,0-.18-.31l-.11-.1.09-.09,2.69,2.6-.93,1-.09-.09a1.62,1.62,0,0,0,.29-.69,1,1,0,0,0-.13-.56,2.64,2.64,0,0,0-.46-.52Zm-4.44,1.39-.09.08-1.56-1.74.09-.08.1.11a.62.62,0,0,0,.26.19.3.3,0,0,0,.21,0,1.4,1.4,0,0,0,.34-.25l2.2-2a1.5,1.5,0,0,0,.3-.32.32.32,0,0,0,0-.21.57.57,0,0,0-.15-.27l-.1-.11.09-.08,1.56,1.74-.09.08-.1-.11a.61.61,0,0,0-.26-.19.32.32,0,0,0-.21,0,1.37,1.37,0,0,0-.34.25l-2.2,2a1.51,1.51,0,0,0-.3.32.37.37,0,0,0,0,.21.61.61,0,0,0,.15.27Zm1.41-5.14-1.21,1-.08-.1a1.68,1.68,0,0,0,.39-1,1.38,1.38,0,0,0-.31-.9,1.31,1.31,0,0,0-.67-.44,1.41,1.41,0,0,0-.81,0,2.89,2.89,0,0,0-1,.54,3.79,3.79,0,0,0-.76.81,1.48,1.48,0,0,0-.29.84,1.32,1.32,0,0,0,.33.81,1.61,1.61,0,0,0,.63.48,2.66,2.66,0,0,0,1,.17l-.3.25a2.45,2.45,0,0,1-.94-.25,2.37,2.37,0,0,1-.73-.63,2.72,2.72,0,0,1-.58-1.17,2.05,2.05,0,0,1,.11-1.19,2.35,2.35,0,0,1,.71-1,2.41,2.41,0,0,1,1.16-.51,2.37,2.37,0,0,1,1.27.14,2.43,2.43,0,0,1,1,.74,2.73,2.73,0,0,1,.47.91,1.52,1.52,0,0,0,.15.38.25.25,0,0,0,.17.09.43.43,0,0,0,.26-.08Zm-4.33-5.31a1,1,0,0,0-1-.44,3.39,3.39,0,0,0-1.39.6,2.92,2.92,0,0,0-1.21,1.27.92.92,0,0,0,.1.87.93.93,0,0,0,.45.39,1.36,1.36,0,0,0,.81,0,3.82,3.82,0,0,0,1.11-.53,4.08,4.08,0,0,0,1-.87,1.31,1.31,0,0,0,.3-.7,1,1,0,0,0-.17-.59m.16-.15a2.23,2.23,0,0,1,.42,1.8,2.28,2.28,0,0,1-1,1.48,2.41,2.41,0,0,1-1.54.41,2.2,2.2,0,0,1-1.74-1.09,2.26,2.26,0,0,1-.32-2,2.41,2.41,0,0,1,1-1.28,2.25,2.25,0,0,1,1.77-.35,2.14,2.14,0,0,1,1.44,1.06m-1.62-2.67-1.3.76-.07-.12a1.54,1.54,0,0,0,.57-.86,1.18,1.18,0,0,0-.09-.88.75.75,0,0,0-.42-.38.55.55,0,0,0-.46,0,.51.51,0,0,0-.2.19,1.12,1.12,0,0,0-.12.42,6.88,6.88,0,0,0,0,.82,3.21,3.21,0,0,1-.13,1.29,1.26,1.26,0,0,1-.56.62,1.28,1.28,0,0,1-1.06.09,1.56,1.56,0,0,1-.89-.77,1.8,1.8,0,0,1-.16-.37,3,3,0,0,1-.09-.49.72.72,0,0,0-.07-.26.32.32,0,0,0-.15-.13.46.46,0,0,0-.25,0l-.06-.11,1.49-.83.06.11a2,2,0,0,0-.69,1,1.32,1.32,0,0,0,.1,1A.82.82,0,0,0,18,106a.61.61,0,0,0,.75-.26,1,1,0,0,0,.12-.36,3.76,3.76,0,0,0,0-.7,5.27,5.27,0,0,1,0-1,1.61,1.61,0,0,1,.22-.59,1.2,1.2,0,0,1,.44-.41,1.22,1.22,0,0,1,1-.1,1.36,1.36,0,0,1,.81.68,1.67,1.67,0,0,1,.16.4,2,2,0,0,1,.05.4.91.91,0,0,0,.06.33.17.17,0,0,0,.11.09.62.62,0,0,0,.27,0ZM91.23,10.8a3.58,3.58,0,0,1,.29,2.88,3.7,3.7,0,1,1-7.12-2,3.69,3.69,0,0,1,1.73-2.3,3.88,3.88,0,0,1,5.1,1.41M89,15a6.78,6.78,0,0,0,.77-1.82A5,5,0,0,0,90,10.62,1.5,1.5,0,0,0,88.9,9.44a1.67,1.67,0,0,0-1.94.91,6.8,6.8,0,0,0-.76,1.8,6.74,6.74,0,0,0-.32,2A1.63,1.63,0,0,0,89,15m-36.6-4.1a3.49,3.49,0,0,1,2.21-1.82,3.59,3.59,0,0,1,1.3-.14,3.47,3.47,0,0,0,.83,0A.34.34,0,0,0,57,8.74.92.92,0,0,0,57,8.35l.28-.08L58,10.59l-.25.08a5.7,5.7,0,0,0-1.1-1,2.16,2.16,0,0,0-1.83-.32,1.55,1.55,0,0,0-1.15,1.27,5.34,5.34,0,0,0,.28,2.49A6,6,0,0,0,55,15.23a1.64,1.64,0,0,0,1.89.49,1.12,1.12,0,0,0,.77-.53.73.73,0,0,0,0-.5l-.32-1.05q-.14-.45-.46-.51a2.14,2.14,0,0,0-.76.13L56.06,13l3.41-1,.08.25a1,1,0,0,0-.62.42,1.13,1.13,0,0,0,0,.75l.39,1.27a4.59,4.59,0,0,1-.94.74,6.49,6.49,0,0,1-1.59.71,3.64,3.64,0,0,1-3-.24,3.58,3.58,0,0,1-1.67-2.17,3.67,3.67,0,0,1,.19-2.8m8.73,3.63a1.2,1.2,0,0,0,.69-.3,1,1,0,0,0,.09-.77L61.24,8.9q-.08-.6-.34-.75a1.44,1.44,0,0,0-.7-.07l0-.26,3.32-.47a5.39,5.39,0,0,1,1.7,0,1.68,1.68,0,0,1,1,2.81,2.39,2.39,0,0,1-.94.6l2.49,2.64a.45.45,0,0,0,.2.14.88.88,0,0,0,.24,0l0,.25-2.11.3-2.59-2.92-.27,0,.28,2a1.1,1.1,0,0,0,.28.71,1.1,1.1,0,0,0,.75.1l0,.26-3.48.49Zm3.52-4.14q.4-.33.26-1.31a2.25,2.25,0,0,0-.3-.92,1.07,1.07,0,0,0-1.13-.44,1,1,0,0,0-.53.18.41.41,0,0,0-.08.36l.37,2.62a3,3,0,0,0,1.41-.49m7.93-3.62V7a1.43,1.43,0,0,0-.81.17q-.21.16-.22.76l-.06,3.48a3.17,3.17,0,0,0,.17,1.23,1.29,1.29,0,0,0,1.29.83,1.62,1.62,0,0,0,1.64-.86,3.24,3.24,0,0,0,.26-1.36l.06-3.18a1.09,1.09,0,0,0-.2-.77,1.26,1.26,0,0,0-.8-.27V6.79l2.29,0v.26a1.53,1.53,0,0,0-.67.23.89.89,0,0,0-.17.64l-.06,3.33a3,3,0,0,1-.68,2,2.56,2.56,0,0,1-2,.69,2.65,2.65,0,0,1-2.44-1.12,2.77,2.77,0,0,1-.33-1.48l.06-3.48a1.13,1.13,0,0,0-.14-.75A1.26,1.26,0,0,0,69,7V6.7Zm8.53,4.12q.54-.23.7-1.26a2.39,2.39,0,0,0-.06-1.17,1,1,0,0,0-.84-.58,1,1,0,0,0-.45,0,.29.29,0,0,0-.17.26l-.44,2.76a2.66,2.66,0,0,0,1.26,0M76.8,13.72a1.08,1.08,0,0,0,.71-.1,1.09,1.09,0,0,0,.29-.7l.72-4.55q.09-.58-.06-.76a1.3,1.3,0,0,0-.64-.32l0-.26,3.31.52a3.86,3.86,0,0,1,1.93.74,1.61,1.61,0,0,1,.46,1.58,1.83,1.83,0,0,1-.42.91,1.88,1.88,0,0,1-1,.57,3.21,3.21,0,0,1-1,.08q-.47,0-1.39-.18l-.3,1.92a1,1,0,0,0,.07.77,1.15,1.15,0,0,0,.68.31l0,.26L76.76,14Zm49.12,86.95A61.2,61.2,0,0,0,94.27,14.83V13.42a62.51,62.51,0,0,1,33.15,87.24ZM49.73,14.83a61.2,61.2,0,0,0-31.66,85.83H16.59A62.51,62.51,0,0,1,49.73,13.42Z"></path><path class="cls-2" d="M76.34,121.17l.55-3.81-.9.16a1.82,1.82,0,0,0-.77.28.74.74,0,0,0-.24.42l-.12,0,.08-1.41,2.6-.46-.68,4.71ZM67,116.74l-.63,3.56a2.26,2.26,0,0,0-.06.52.34.34,0,0,0,.12.21.71.71,0,0,0,.35.13l.1,0,0,.12-2.29-.4,0-.12.12,0a.91.91,0,0,0,.41,0,.33.33,0,0,0,.19-.15,2,2,0,0,0,.13-.52l.4-2.26a1.43,1.43,0,0,0,0-.38.26.26,0,0,0-.09-.15.31.31,0,0,0-.17-.09,1,1,0,0,0-.42,0l0-.13,1.73-.45Zm.94,4.79v-.09a2.86,2.86,0,0,0,.93-.32,1.86,1.86,0,0,0,.63-.57,2.37,2.37,0,0,0,.35-.8,2,2,0,0,1-.35.13,1.15,1.15,0,0,1-1.12-.38,1.41,1.41,0,0,1-.28-1,1.78,1.78,0,0,1,.22-.79,1.34,1.34,0,0,1,2-.44,1.55,1.55,0,0,1,.52.67,2.16,2.16,0,0,1,.15,1,2.84,2.84,0,0,1-.41,1.32,2.54,2.54,0,0,1-1,1,3.31,3.31,0,0,1-1.59.34m2-2q.05-.36.07-.64a4.27,4.27,0,0,0-.08-1.11.83.83,0,0,0-.21-.43.31.31,0,0,0-.21-.08.29.29,0,0,0-.26.13,1.46,1.46,0,0,0-.17.73,2.53,2.53,0,0,0,.15,1.26.43.43,0,0,0,.37.24.81.81,0,0,0,.34-.09m2.3-.17v-.11a2.19,2.19,0,0,0,.5-.24.78.78,0,0,0,.22-.3.81.81,0,0,0,.07-.4.62.62,0,0,0-.24-.44.66.66,0,0,0-.5-.15.92.92,0,0,0-.73.55l-.12,0a2,2,0,0,1,.53-.87,1.34,1.34,0,0,1,.79-.34,1.06,1.06,0,0,1,.78.21.87.87,0,0,1,.36.63.89.89,0,0,1-.1.48,1.19,1.19,0,0,1-.4.43,1.52,1.52,0,0,1,.62.41,1.11,1.11,0,0,1,.26.66,1.58,1.58,0,0,1-.4,1.22,1.85,1.85,0,0,1-1.29.6,1.42,1.42,0,0,1-.83-.11.4.4,0,0,1-.21-.32.37.37,0,0,1,.32-.39.46.46,0,0,1,.21,0l.39.25a1,1,0,0,0,.62.2.54.54,0,0,0,.4-.22.7.7,0,0,0,.13-.5,1.26,1.26,0,0,0-.38-.79,1.64,1.64,0,0,0-1-.44"></path></g></g></svg>