<svg xmlns="http://www.w3.org/2000/svg" id="Capa_1" data-name="Capa 1" viewBox="0 0 396 391"><defs><style>.cls-1,.cls-2{fill:#f1f1f1;}.cls-2{fill-rule:evenodd;}</style></defs><title>LOGO ABONAP SID</title><path class="cls-1" d="M219.69,293l.44-194.16c43.83,14.31,73.33,48.8,73.59,96.32-.45,49.13-29.46,82-74,97.84m29.1-52.12c20.59-28.46,24.85-59.74,0-91.33ZM208.48,97.18l1,.12.43,196.89-3.59.3c-10.33,1.15-14.21.69-24.58-.52V97.4a116.63,116.63,0,0,1,14.22-1,111.47,111.47,0,0,1,12.52.79M98.94,208.35c-.42-4.21-.72-8.41-.72-12.65,0-46.07,29.18-82.35,72.29-96v63.45h-26V144c-12.19,9.55-17,24.21-19.76,37.66h45.87V291.68c-35.54-10.93-57.27-33.36-68.68-68.49l27.86,0c3.24,9.22,6.79,16,14.6,22.15v-37Z"></path><path class="cls-2" d="M222.92,102.65c43.64,14.26,67.79,52.06,68,92.47-.43,47.36-29.31,80-68.43,93.88Zm23,39.22L246,249c26.78-32.62,33.47-70-.05-107.15M184.54,291.48V99.87a93.5,93.5,0,0,1,11.42-.7,95,95,0,0,1,10.73.61l.42,191.83-1,.08c-8.76,1-12.18.87-21.54-.21M127.82,226c4.28,12.17,10.51,19.1,19.37,24.75V205.55H101.47a97.36,97.36,0,0,1-.45-9.86c0-43.31,28.06-79.95,66.7-92.17v56.84H147.31V138.63c-17.63,10.65-23.08,30-25.94,45.77h46.46V287.89c-29.54-9.08-52.4-32.21-62-61.91Z"></path><path class="cls-2" d="M192.06,311.26a3.13,3.13,0,0,0-.76-1.56,1.14,1.14,0,0,0-.75-.3,1,1,0,0,0-.94.46,5.16,5.16,0,0,0-.61,2.63,9.11,9.11,0,0,0,.55,4.54,1.53,1.53,0,0,0,1.32.87,2.92,2.92,0,0,0,1.24-.3c.12-.88.2-1.66.24-2.32A15.88,15.88,0,0,0,192.06,311.26Zm0,0a3.13,3.13,0,0,0-.76-1.56,1.14,1.14,0,0,0-.75-.3,1,1,0,0,0-.94.46,5.16,5.16,0,0,0-.61,2.63,9.11,9.11,0,0,0,.55,4.54,1.53,1.53,0,0,0,1.32.87,2.92,2.92,0,0,0,1.24-.3c.12-.88.2-1.66.24-2.32A15.88,15.88,0,0,0,192.06,311.26Zm0,0a3.13,3.13,0,0,0-.76-1.56,1.14,1.14,0,0,0-.75-.3,1,1,0,0,0-.94.46,5.16,5.16,0,0,0-.61,2.63,9.11,9.11,0,0,0,.55,4.54,1.53,1.53,0,0,0,1.32.87,2.92,2.92,0,0,0,1.24-.3c.12-.88.2-1.66.24-2.32A15.88,15.88,0,0,0,192.06,311.26Zm0,0a3.13,3.13,0,0,0-.76-1.56,1.14,1.14,0,0,0-.75-.3,1,1,0,0,0-.94.46,5.16,5.16,0,0,0-.61,2.63,9.11,9.11,0,0,0,.55,4.54,1.53,1.53,0,0,0,1.32.87,2.92,2.92,0,0,0,1.24-.3c.12-.88.2-1.66.24-2.32A15.88,15.88,0,0,0,192.06,311.26Zm0,0a3.13,3.13,0,0,0-.76-1.56,1.14,1.14,0,0,0-.75-.3,1,1,0,0,0-.94.46,5.16,5.16,0,0,0-.61,2.63,9.11,9.11,0,0,0,.55,4.54,1.53,1.53,0,0,0,1.32.87,2.92,2.92,0,0,0,1.24-.3c.12-.88.2-1.66.24-2.32A15.88,15.88,0,0,0,192.06,311.26ZM196,86.52A109.25,109.25,0,1,0,305.21,195.77,109.25,109.25,0,0,0,196,86.52ZM196,302A106.19,106.19,0,1,1,302.15,195.77,106.18,106.18,0,0,1,196,302Zm0-215.43A109.25,109.25,0,1,0,305.21,195.77,109.25,109.25,0,0,0,196,86.52ZM196,302A106.19,106.19,0,1,1,302.15,195.77,106.18,106.18,0,0,1,196,302Zm-3.91,9.31a3.13,3.13,0,0,0-.76-1.56,1.14,1.14,0,0,0-.75-.3,1,1,0,0,0-.94.46,5.16,5.16,0,0,0-.61,2.63,9.11,9.11,0,0,0,.55,4.54,1.53,1.53,0,0,0,1.32.87,2.92,2.92,0,0,0,1.24-.3c.12-.88.2-1.66.24-2.32A15.88,15.88,0,0,0,192.06,311.26ZM196,64.07a131.7,131.7,0,1,0,131.69,131.7A131.7,131.7,0,0,0,196,64.07Zm-16.9,258.37a1.2,1.2,0,0,0,.42.74,2.59,2.59,0,0,0,1.26.49l.35.07-.07.43-8.3-1.47.08-.43.42.08a3.48,3.48,0,0,0,1.48,0,1.32,1.32,0,0,0,.7-.54,7.9,7.9,0,0,0,.48-1.87l1.44-8.17a4.86,4.86,0,0,0,.13-1.37.94.94,0,0,0-.31-.54,1.05,1.05,0,0,0-.61-.31,3.92,3.92,0,0,0-1.51.11l-.13-.45,6.26-1.63.38.07-2.27,12.89A8.11,8.11,0,0,0,179.07,322.44Zm16.86-6.95a10.31,10.31,0,0,1-1.47,4.77,9.1,9.1,0,0,1-3.79,3.52,11.93,11.93,0,0,1-5.74,1.21l0-.33a10.42,10.42,0,0,0,3.38-1.14,6.82,6.82,0,0,0,2.27-2,8.5,8.5,0,0,0,1.27-2.9,7.33,7.33,0,0,1-1.27.47,4.78,4.78,0,0,1-1.08.09,4,4,0,0,1-3-1.47,5.14,5.14,0,0,1-1-3.65,6.33,6.33,0,0,1,.8-2.85,5,5,0,0,1,4.53-2.54,4.86,4.86,0,0,1,2.62.94,5.68,5.68,0,0,1,1.87,2.42A8,8,0,0,1,195.93,315.49Zm10.35,7.61a6.69,6.69,0,0,1-4.68,2.17,5.21,5.21,0,0,1-3-.41,1.45,1.45,0,0,1-.78-1.16,1.32,1.32,0,0,1,1.17-1.41,1.68,1.68,0,0,1,.74.09c.13.06.61.37,1.42.93a3.47,3.47,0,0,0,2.24.73,2,2,0,0,0,1.43-.81,2.56,2.56,0,0,0,.47-1.8,4.62,4.62,0,0,0-1.39-2.87,6,6,0,0,0-3.47-1.59l0-.41a8.26,8.26,0,0,0,1.8-.88,2.78,2.78,0,0,0,.8-1.1,3,3,0,0,0,.26-1.44,2.27,2.27,0,0,0-.87-1.6,2.4,2.4,0,0,0-1.82-.55,3.36,3.36,0,0,0-2.65,2l-.44-.11a7,7,0,0,1,1.9-3.14,4.86,4.86,0,0,1,2.87-1.25,3.77,3.77,0,0,1,2.81.78,3.14,3.14,0,0,1,1.29,2.27,3.22,3.22,0,0,1-.36,1.74,4.32,4.32,0,0,1-1.44,1.58,5.41,5.41,0,0,1,2.24,1.47,4,4,0,0,1,.95,2.39A5.74,5.74,0,0,1,206.28,323.1Zm10.93.29-1.82.32,2-13.76-3.27.58a6.65,6.65,0,0,0-2.8,1,2.75,2.75,0,0,0-.88,1.52l-.44.08.27-5.1,9.4-1.65Zm-21.24-17A110.59,110.59,0,1,1,306.55,195.77,110.58,110.58,0,0,1,196,306.35Zm0-219.83A109.25,109.25,0,1,0,305.21,195.77,109.25,109.25,0,0,0,196,86.52ZM196,302A106.19,106.19,0,1,1,302.15,195.77,106.18,106.18,0,0,1,196,302Zm-4.67,7.75a1.14,1.14,0,0,0-.75-.3,1,1,0,0,0-.94.46,5.16,5.16,0,0,0-.61,2.63,9.11,9.11,0,0,0,.55,4.54,1.53,1.53,0,0,0,1.32.87,2.92,2.92,0,0,0,1.24-.3c.12-.88.2-1.66.24-2.32a15.88,15.88,0,0,0-.29-4A3.13,3.13,0,0,0,191.3,309.7ZM196,64.07a131.7,131.7,0,1,0,131.69,131.7A131.7,131.7,0,0,0,196,64.07Zm-16.9,258.37a1.2,1.2,0,0,0,.42.74,2.59,2.59,0,0,0,1.26.49l.35.07-.07.43-8.3-1.47.08-.43.42.08a3.48,3.48,0,0,0,1.48,0,1.32,1.32,0,0,0,.7-.54,7.9,7.9,0,0,0,.48-1.87l1.44-8.17a4.86,4.86,0,0,0,.13-1.37.94.94,0,0,0-.31-.54,1.05,1.05,0,0,0-.61-.31,3.92,3.92,0,0,0-1.51.11l-.13-.45,6.26-1.63.38.07-2.27,12.89A8.11,8.11,0,0,0,179.07,322.44Zm16.86-6.95a10.31,10.31,0,0,1-1.47,4.77,9.1,9.1,0,0,1-3.79,3.52,11.93,11.93,0,0,1-5.74,1.21l0-.33a10.42,10.42,0,0,0,3.38-1.14,6.82,6.82,0,0,0,2.27-2,8.5,8.5,0,0,0,1.27-2.9,7.33,7.33,0,0,1-1.27.47,4.78,4.78,0,0,1-1.08.09,4,4,0,0,1-3-1.47,5.14,5.14,0,0,1-1-3.65,6.33,6.33,0,0,1,.8-2.85,5,5,0,0,1,4.53-2.54,4.86,4.86,0,0,1,2.62.94,5.68,5.68,0,0,1,1.87,2.42A8,8,0,0,1,195.93,315.49Zm10.35,7.61a6.69,6.69,0,0,1-4.68,2.17,5.21,5.21,0,0,1-3-.41,1.45,1.45,0,0,1-.78-1.16,1.32,1.32,0,0,1,1.17-1.41,1.68,1.68,0,0,1,.74.09c.13.06.61.37,1.42.93a3.47,3.47,0,0,0,2.24.73,2,2,0,0,0,1.43-.81,2.56,2.56,0,0,0,.47-1.8,4.62,4.62,0,0,0-1.39-2.87,6,6,0,0,0-3.47-1.59l0-.41a8.26,8.26,0,0,0,1.8-.88,2.78,2.78,0,0,0,.8-1.1,3,3,0,0,0,.26-1.44,2.27,2.27,0,0,0-.87-1.6,2.4,2.4,0,0,0-1.82-.55,3.36,3.36,0,0,0-2.65,2l-.44-.11a7,7,0,0,1,1.9-3.14,4.86,4.86,0,0,1,2.87-1.25,3.77,3.77,0,0,1,2.81.78,3.14,3.14,0,0,1,1.29,2.27,3.22,3.22,0,0,1-.36,1.74,4.32,4.32,0,0,1-1.44,1.58,5.41,5.41,0,0,1,2.24,1.47,4,4,0,0,1,.95,2.39A5.74,5.74,0,0,1,206.28,323.1Zm10.93.29-1.82.32,2-13.76-3.27.58a6.65,6.65,0,0,0-2.8,1,2.75,2.75,0,0,0-.88,1.52l-.44.08.27-5.1,9.4-1.65Zm-21.24-17A110.59,110.59,0,1,1,306.55,195.77,110.58,110.58,0,0,1,196,306.35Zm0-219.83A109.25,109.25,0,1,0,305.21,195.77,109.25,109.25,0,0,0,196,86.52ZM196,302A106.19,106.19,0,1,1,302.15,195.77,106.18,106.18,0,0,1,196,302Zm-4.67,7.75a1.14,1.14,0,0,0-.75-.3,1,1,0,0,0-.94.46,5.16,5.16,0,0,0-.61,2.63,9.11,9.11,0,0,0,.55,4.54,1.53,1.53,0,0,0,1.32.87,2.92,2.92,0,0,0,1.24-.3c.12-.88.2-1.66.24-2.32a15.88,15.88,0,0,0-.29-4A3.13,3.13,0,0,0,191.3,309.7ZM196,58.76a137,137,0,1,0,137,137A137,137,0,0,0,196,58.76Zm0,270a133,133,0,1,1,133-133A133,133,0,0,1,196,328.77Zm0-264.7a131.7,131.7,0,1,0,131.69,131.7A131.7,131.7,0,0,0,196,64.07Zm-16.9,258.37a1.2,1.2,0,0,0,.42.74,2.59,2.59,0,0,0,1.26.49l.35.07-.07.43-8.3-1.47.08-.43.42.08a3.48,3.48,0,0,0,1.48,0,1.32,1.32,0,0,0,.7-.54,7.9,7.9,0,0,0,.48-1.87l1.44-8.17a4.86,4.86,0,0,0,.13-1.37.94.94,0,0,0-.31-.54,1.05,1.05,0,0,0-.61-.31,3.92,3.92,0,0,0-1.51.11l-.13-.45,6.26-1.63.38.07-2.27,12.89A8.11,8.11,0,0,0,179.07,322.44Zm16.86-6.95a10.31,10.31,0,0,1-1.47,4.77,9.1,9.1,0,0,1-3.79,3.52,11.93,11.93,0,0,1-5.74,1.21l0-.33a10.42,10.42,0,0,0,3.38-1.14,6.82,6.82,0,0,0,2.27-2,8.5,8.5,0,0,0,1.27-2.9,7.33,7.33,0,0,1-1.27.47,4.78,4.78,0,0,1-1.08.09,4,4,0,0,1-3-1.47,5.14,5.14,0,0,1-1-3.65,6.33,6.33,0,0,1,.8-2.85,5,5,0,0,1,4.53-2.54,4.86,4.86,0,0,1,2.62.94,5.68,5.68,0,0,1,1.87,2.42A8,8,0,0,1,195.93,315.49Zm10.35,7.61a6.69,6.69,0,0,1-4.68,2.17,5.21,5.21,0,0,1-3-.41,1.45,1.45,0,0,1-.78-1.16,1.32,1.32,0,0,1,1.17-1.41,1.68,1.68,0,0,1,.74.09c.13.06.61.37,1.42.93a3.47,3.47,0,0,0,2.24.73,2,2,0,0,0,1.43-.81,2.56,2.56,0,0,0,.47-1.8,4.62,4.62,0,0,0-1.39-2.87,6,6,0,0,0-3.47-1.59l0-.41a8.26,8.26,0,0,0,1.8-.88,2.78,2.78,0,0,0,.8-1.1,3,3,0,0,0,.26-1.44,2.27,2.27,0,0,0-.87-1.6,2.4,2.4,0,0,0-1.82-.55,3.36,3.36,0,0,0-2.65,2l-.44-.11a7,7,0,0,1,1.9-3.14,4.86,4.86,0,0,1,2.87-1.25,3.77,3.77,0,0,1,2.81.78,3.14,3.14,0,0,1,1.29,2.27,3.22,3.22,0,0,1-.36,1.74,4.32,4.32,0,0,1-1.44,1.58,5.41,5.41,0,0,1,2.24,1.47,4,4,0,0,1,.95,2.39A5.74,5.74,0,0,1,206.28,323.1Zm10.93.29-1.82.32,2-13.76-3.27.58a6.65,6.65,0,0,0-2.8,1,2.75,2.75,0,0,0-.88,1.52l-.44.08.27-5.1,9.4-1.65Zm-21.24-17A110.59,110.59,0,1,1,306.55,195.77,110.58,110.58,0,0,1,196,306.35Zm0-219.83A109.25,109.25,0,1,0,305.21,195.77,109.25,109.25,0,0,0,196,86.52ZM196,302A106.19,106.19,0,1,1,302.15,195.77,106.18,106.18,0,0,1,196,302Zm-4.67,7.75a1.14,1.14,0,0,0-.75-.3,1,1,0,0,0-.94.46,5.16,5.16,0,0,0-.61,2.63,9.11,9.11,0,0,0,.55,4.54,1.53,1.53,0,0,0,1.32.87,2.92,2.92,0,0,0,1.24-.3c.12-.88.2-1.66.24-2.32a15.88,15.88,0,0,0-.29-4A3.13,3.13,0,0,0,191.3,309.7ZM196,86.52A109.25,109.25,0,1,0,305.21,195.77,109.25,109.25,0,0,0,196,86.52ZM196,302A106.19,106.19,0,1,1,302.15,195.77,106.18,106.18,0,0,1,196,302Zm-3.91,9.31a3.13,3.13,0,0,0-.76-1.56,1.14,1.14,0,0,0-.75-.3,1,1,0,0,0-.94.46,5.16,5.16,0,0,0-.61,2.63,9.11,9.11,0,0,0,.55,4.54,1.53,1.53,0,0,0,1.32.87,2.92,2.92,0,0,0,1.24-.3c.12-.88.2-1.66.24-2.32A15.88,15.88,0,0,0,192.06,311.26ZM196,86.52A109.25,109.25,0,1,0,305.21,195.77,109.25,109.25,0,0,0,196,86.52ZM196,302A106.19,106.19,0,1,1,302.15,195.77,106.18,106.18,0,0,1,196,302Zm-3.91,9.31a3.13,3.13,0,0,0-.76-1.56,1.14,1.14,0,0,0-.75-.3,1,1,0,0,0-.94.46,5.16,5.16,0,0,0-.61,2.63,9.11,9.11,0,0,0,.55,4.54,1.53,1.53,0,0,0,1.32.87,2.92,2.92,0,0,0,1.24-.3c.12-.88.2-1.66.24-2.32A15.88,15.88,0,0,0,192.06,311.26Zm0,0a3.13,3.13,0,0,0-.76-1.56,1.14,1.14,0,0,0-.75-.3,1,1,0,0,0-.94.46,5.16,5.16,0,0,0-.61,2.63,9.11,9.11,0,0,0,.55,4.54,1.53,1.53,0,0,0,1.32.87,2.92,2.92,0,0,0,1.24-.3c.12-.88.2-1.66.24-2.32A15.88,15.88,0,0,0,192.06,311.26Zm0,0a3.13,3.13,0,0,0-.76-1.56,1.14,1.14,0,0,0-.75-.3,1,1,0,0,0-.94.46,5.16,5.16,0,0,0-.61,2.63,9.11,9.11,0,0,0,.55,4.54,1.53,1.53,0,0,0,1.32.87,2.92,2.92,0,0,0,1.24-.3c.12-.88.2-1.66.24-2.32A15.88,15.88,0,0,0,192.06,311.26Zm0,0a3.13,3.13,0,0,0-.76-1.56,1.14,1.14,0,0,0-.75-.3,1,1,0,0,0-.94.46,5.16,5.16,0,0,0-.61,2.63,9.11,9.11,0,0,0,.55,4.54,1.53,1.53,0,0,0,1.32.87,2.92,2.92,0,0,0,1.24-.3c.12-.88.2-1.66.24-2.32A15.88,15.88,0,0,0,192.06,311.26Zm0,0a3.13,3.13,0,0,0-.76-1.56,1.14,1.14,0,0,0-.75-.3,1,1,0,0,0-.94.46,5.16,5.16,0,0,0-.61,2.63,9.11,9.11,0,0,0,.55,4.54,1.53,1.53,0,0,0,1.32.87,2.92,2.92,0,0,0,1.24-.3c.12-.88.2-1.66.24-2.32A15.88,15.88,0,0,0,192.06,311.26Z"></path><path class="cls-1" d="M196,54.75a141,141,0,1,0,141,141A141,141,0,0,0,196,54.75Zm0,280a139,139,0,1,1,139-139A139,139,0,0,1,196,334.78Z"></path><path class="cls-1" d="M196,85.18A110.59,110.59,0,1,0,306.55,195.77,110.58,110.58,0,0,0,196,85.18ZM196,305A109.25,109.25,0,1,1,305.21,195.77,109.25,109.25,0,0,1,196,305Z"></path><path class="cls-1" d="M334.17,275.62a1.34,1.34,0,0,1-.68.51,5.37,5.37,0,0,1-1.89-.09l-9.9-1.57-.09.13,5.28,8.21a7,7,0,0,1,.89,1.72,1.66,1.66,0,0,1-.13,1.11l.26.16,2-3.13-.26-.17a3.23,3.23,0,0,1-.77.82.74.74,0,0,1-.78-.06,2.35,2.35,0,0,1-.63-.68l-.65-1,2.17-3.33,1.49.26c.39.06.61.11.65.12a.86.86,0,0,1,.29.13.43.43,0,0,1,.22.36,1.71,1.71,0,0,1-.35.86l-.13.19.26.17,3-4.56Zm-7.66,5.4-2.29-3.54,4.14.69Zm.06,7.06-7.42-5.59a2.86,2.86,0,0,1-.81-.77.86.86,0,0,1-.14-.58,2.38,2.38,0,0,1,.38-.91l-.24-.19-2.24,3,.25.18a1.58,1.58,0,0,1,1.16-.79,2.21,2.21,0,0,1,1.26.59l3.84,2.88-8.88.27-2.4,3.19.24.18a2.16,2.16,0,0,1,.6-.54,2.44,2.44,0,0,1,.85-.14l.38,0,6.29,4.73a1.8,1.8,0,0,1,.79,1,1.82,1.82,0,0,1-.48,1.26l.24.18,2.41-3.18-.24-.19-.16.21a1.73,1.73,0,0,1-.89.62,1.61,1.61,0,0,1-1.3-.43l-5.67-4.26,12-.5Zm-7.28,8.5a1.35,1.35,0,0,1-.75.41,5.54,5.54,0,0,1-1.86-.36l-9.57-2.93-.1.12,4.07,8.87a6.22,6.22,0,0,1,.64,1.84,1.67,1.67,0,0,1-.27,1.07l.22.2,2.46-2.82-.23-.21a3.17,3.17,0,0,1-.87.71.76.76,0,0,1-.77-.16,2.38,2.38,0,0,1-.53-.77l-.51-1.07,2.61-3,1.44.46a4.63,4.63,0,0,1,.63.22,1.2,1.2,0,0,1,.27.16.44.44,0,0,1,.16.39,1.75,1.75,0,0,1-.47.81l-.15.17.24.2,3.57-4.11ZM311,300.86,309.18,297l4,1.26Zm-2.21,4.36a6.65,6.65,0,0,1-.29,2.44,4.1,4.1,0,0,1-1.1,1.66,3.33,3.33,0,0,1-2,1,3.6,3.6,0,0,1-2.14-.54A9.15,9.15,0,0,1,301.1,308a7,7,0,0,1-1.5-2.38,3.39,3.39,0,0,1-.13-2,3.32,3.32,0,0,1,1-1.76,3.47,3.47,0,0,1,2.2-.95,4.07,4.07,0,0,1,2.58.76l.23-.22-2.63-2.83-.24.23a1,1,0,0,1,.24.62.64.64,0,0,1-.21.45,3.89,3.89,0,0,1-.91.44,7.07,7.07,0,0,0-2.18,1.34,6.22,6.22,0,0,0-1.69,2.66,6.08,6.08,0,0,0,1.3,6,5.7,5.7,0,0,0,2.5,1.57,5.13,5.13,0,0,0,3,0,7,7,0,0,0,2.83-1.66,5.51,5.51,0,0,0,1.92-4.34Zm-7.5,10-.28.24a1.72,1.72,0,0,1-.67.38,1,1,0,0,1-.54,0A4,4,0,0,1,299,315l-4.81-5.54a3.19,3.19,0,0,1-.61-.85.81.81,0,0,1,0-.51,1.6,1.6,0,0,1,.49-.66l.28-.24-.2-.23-4.44,3.87.2.23.29-.25a1.42,1.42,0,0,1,.67-.37.8.8,0,0,1,.52,0,3.91,3.91,0,0,1,.77.75l4.8,5.54a3.35,3.35,0,0,1,.62.84.81.81,0,0,1,0,.51,1.66,1.66,0,0,1-.48.66l-.29.24.2.23,4.44-3.87Zm-6.3,6.05-5.58-7.43a3.09,3.09,0,0,1-.56-1,1,1,0,0,1,0-.61,3.12,3.12,0,0,1,.62-.77l-.17-.24-3,2.24.18.25a1.62,1.62,0,0,1,1.34-.45,2.31,2.31,0,0,1,1.05.91l2.88,3.84-8.58-2.18L280,318.25l.19.24a1.69,1.69,0,0,1,.72-.35,2.15,2.15,0,0,1,.85.09l.37.09,4.73,6.29a1.38,1.38,0,0,1-.34,2.31l.18.25,3.19-2.41-.19-.24-.2.16a1.74,1.74,0,0,1-1,.34,1.58,1.58,0,0,1-1.13-.77l-4.26-5.67,11.65,2.83Zm-9.48,6.33-.31.21a1.49,1.49,0,0,1-.72.28.88.88,0,0,1-.51-.12,3.44,3.44,0,0,1-.66-.85l-4-6.16a3.27,3.27,0,0,1-.49-.92.75.75,0,0,1,.07-.52,1.58,1.58,0,0,1,.56-.57l.32-.21-.17-.25-4.92,3.21.16.26.31-.2a1.35,1.35,0,0,1,.72-.27.75.75,0,0,1,.51.1,3.66,3.66,0,0,1,.66.85l4,6.16a3.15,3.15,0,0,1,.49.93.78.78,0,0,1-.06.51,1.55,1.55,0,0,1-.57.57l-.31.21.16.26,4.93-3.22Zm-5.88,4.05-.32.18a1.57,1.57,0,0,1-.73.23.91.91,0,0,1-.51-.15,3.57,3.57,0,0,1-.59-.9l-3.56-6.44a3.44,3.44,0,0,1-.41-.94.76.76,0,0,1,.1-.51,1.62,1.62,0,0,1,.61-.53l.32-.18-.14-.27-4,2.23.89,7.94-6.31-4.91-4,2.24.15.26.31-.17a1.44,1.44,0,0,1,.74-.22.76.76,0,0,1,.5.14,3.31,3.31,0,0,1,.59.88l3.41,6.18a6,6,0,0,1,.38.75,1.41,1.41,0,0,1,.07.65,1.12,1.12,0,0,1-.26.54,1.7,1.7,0,0,1-.55.44l-.1.06.14.26,3.37-1.87-.15-.27a1.93,1.93,0,0,1-1.12.33,1.24,1.24,0,0,1-.73-.36,7.66,7.66,0,0,1-.52-.87l-3.8-6.89,8.71,6.72.17-.1-1.15-11,4,7.24a3.25,3.25,0,0,1,.41.95.81.81,0,0,1-.09.51,1.6,1.6,0,0,1-.62.54l-.31.18.14.27,5.13-2.86ZM262.87,335a5.54,5.54,0,0,0-3.15-3.16,5.6,5.6,0,0,0-4.61.28,5.47,5.47,0,0,0-3.25,3.1,5.59,5.59,0,0,0,0,4.48,5.83,5.83,0,0,0,2.69,3,6.32,6.32,0,0,0,8.58-3.78A6,6,0,0,0,262.87,335Zm-2.29,6.25a2.28,2.28,0,0,1-1.15.94,2.25,2.25,0,0,1-2.18-.1,7,7,0,0,1-2.57-3.5,8.32,8.32,0,0,1-.83-3.66,2.55,2.55,0,0,1,1.55-2.36,2.48,2.48,0,0,1,1.53-.17,3.18,3.18,0,0,1,1.58,1,9.88,9.88,0,0,1,1.67,2.89,9.64,9.64,0,0,1,.8,3A3.31,3.31,0,0,1,260.58,341.21Zm-10.12-.81a5.91,5.91,0,0,0-1.72-2.64,4.63,4.63,0,0,0-2.79-1.17,8.15,8.15,0,0,0-3.23.55L238,338.8l.1.29.35-.12a1.42,1.42,0,0,1,.76-.09.77.77,0,0,1,.47.22,3.81,3.81,0,0,1,.43,1l2.37,7a4,4,0,0,1,.26,1,1,1,0,0,1-.23.52,1.55,1.55,0,0,1-.66.39l-.35.12.1.29,4.74-1.66a8.35,8.35,0,0,0,1.47-.61,7.42,7.42,0,0,0,1.63-1.21,4.87,4.87,0,0,0,1-1.44,5,5,0,0,0,.4-1.88A5.81,5.81,0,0,0,250.46,340.4ZM248,345.5a2.53,2.53,0,0,1-1.69,1.58,1.27,1.27,0,0,1-.65.1.51.51,0,0,1-.29-.15,3.52,3.52,0,0,1-.34-.78l-2.8-8.26a5.38,5.38,0,0,1,1.95-.42,2.89,2.89,0,0,1,1.75.84,7.34,7.34,0,0,1,1.74,3A6.46,6.46,0,0,1,248,345.5Zm-13.45,1.87-.32.08a8.33,8.33,0,0,1-.37,2.14,2.75,2.75,0,0,1-.78,1.19,3.06,3.06,0,0,1-1.38.65l-.92.22a4.37,4.37,0,0,1-1,.16.68.68,0,0,1-.45-.26,3.51,3.51,0,0,1-.34-1l-1.57-6.95a3.57,3.57,0,0,1-.14-1,.82.82,0,0,1,.24-.46,1.61,1.61,0,0,1,.73-.35l.47-.11-.07-.3-5.82,1.37.07.3.36-.08a1.41,1.41,0,0,1,.76,0,.83.83,0,0,1,.45.28,4,4,0,0,1,.32,1l1.63,7.17a3.53,3.53,0,0,1,.14,1,.76.76,0,0,1-.24.46,1.72,1.72,0,0,1-.73.35l-.35.08.06.3,9.7-2.28Zm-10.4,6.07a1.23,1.23,0,0,1-.83-.17,5.27,5.27,0,0,1-1.18-1.46l-5.4-8.43-.15,0-2.6,9.47a7,7,0,0,1-.69,1.83,1.63,1.63,0,0,1-.9.65l0,.3,3.68-.6,0-.3a3.05,3.05,0,0,1-1.12,0,.76.76,0,0,1-.48-.62,2.51,2.51,0,0,1,.09-.93l.3-1.15,3.91-.64.8,1.28c.21.34.32.53.34.58a.75.75,0,0,1,.09.29.43.43,0,0,1-.11.4,1.71,1.71,0,0,1-.88.33l-.22,0,0,.3,5.36-.87Zm-9.08-2.05,1.11-4.09,2.23,3.54Zm-3.8,3.91-.37,0a1.59,1.59,0,0,1-.76-.08.85.85,0,0,1-.41-.35,3.86,3.86,0,0,1-.18-1.06l-.61-7.34a3.56,3.56,0,0,1,0-1.05.93.93,0,0,1,.3-.43,1.63,1.63,0,0,1,.77-.24l.37,0,0-.31-5.83.54,0,.3.37,0a1.46,1.46,0,0,1,.76.09.87.87,0,0,1,.4.34,3.88,3.88,0,0,1,.18,1.07l.61,7.34a4.09,4.09,0,0,1,0,1,.78.78,0,0,1-.3.43,1.63,1.63,0,0,1-.77.24l-.37,0,0,.3,5.83-.54Zm-10.2,1.07,3.53-.14v-.31a1.42,1.42,0,0,1-.79-.25,5.07,5.07,0,0,1-.78-.89l-2.81-3.68a3.81,3.81,0,0,0,1.57-.83,2.67,2.67,0,0,0,.83-2.09,2.72,2.72,0,0,0-.65-1.74,2.92,2.92,0,0,0-1.57-1,11.1,11.1,0,0,0-3-.16l-5.21.2v.31a2.8,2.8,0,0,1,1,.09.77.77,0,0,1,.4.37,3.28,3.28,0,0,1,.16,1.13l.21,7.28a3.1,3.1,0,0,1-.08,1.14.82.82,0,0,1-.37.39,2.62,2.62,0,0,1-1.05.19v.3l5.73-.22v-.31a2.55,2.55,0,0,1-1-.1.85.85,0,0,1-.41-.35,3.69,3.69,0,0,1-.14-1.15l-.1-3.14.74,0Zm-4.51-5.52-.15-4.91.88,0a2.64,2.64,0,0,1,1.95.54,2.56,2.56,0,0,1,.65,1.87,2.87,2.87,0,0,1-.28,1.45,1.8,1.8,0,0,1-.87.79,5.19,5.19,0,0,1-1.71.28Zm-14.64-6.06-.23,3,.32,0a3.19,3.19,0,0,1,1.05-1.84,2.33,2.33,0,0,1,1.67-.38l.81.06-.65,8.63a3.46,3.46,0,0,1-.16,1,.83.83,0,0,1-.37.37,1.48,1.48,0,0,1-.79.12l-.38,0,0,.3,5.85.39,0-.31-.36,0a1.49,1.49,0,0,1-.75-.21.92.92,0,0,1-.35-.4,3.81,3.81,0,0,1,0-1.08l.64-8.63.83,0a2.74,2.74,0,0,1,1.09.23,2.11,2.11,0,0,1,.83.79,4.61,4.61,0,0,1,.47,1.54h.3l.22-3Zm-5.21,3.74a15.61,15.61,0,0,1-1.65-1.18,2.63,2.63,0,0,1-.67-.85,1.18,1.18,0,0,1-.08-.68,1.38,1.38,0,0,1,.61-1,1.92,1.92,0,0,1,1.39-.3,3,3,0,0,1,1.9,1.09,3.83,3.83,0,0,1,.88,2.38l.33,0,.39-3.72-.25,0a1.55,1.55,0,0,1-.31.61.42.42,0,0,1-.35.09,2.22,2.22,0,0,1-.74-.36,5.8,5.8,0,0,0-.89-.48,4.39,4.39,0,0,0-1-.25,3.43,3.43,0,0,0-2.57.65,3,3,0,0,0-1.26,2.15,2.92,2.92,0,0,0,.16,1.47,4,4,0,0,0,.88,1.29,13.3,13.3,0,0,0,2,1.53,8.92,8.92,0,0,1,1.39,1.05,2.17,2.17,0,0,1,.54.77,1.37,1.37,0,0,1,.12.79,1.56,1.56,0,0,1-.69,1.1,2.13,2.13,0,0,1-1.53.33,3.25,3.25,0,0,1-2.1-1.19,4.91,4.91,0,0,1-1-2.88l-.3,0-.53,4.2.3,0a1.22,1.22,0,0,1,.44-.46.83.83,0,0,1,.48-.11,2,2,0,0,1,.63.24,7.77,7.77,0,0,0,1.11.54,4.38,4.38,0,0,0,1,.23,4,4,0,0,0,2.88-.68,3.21,3.21,0,0,0,1.4-2.28,3.13,3.13,0,0,0-.42-2A7.88,7.88,0,0,0,176.7,348.53ZM168,342.86l-.06.3a2.43,2.43,0,0,1,1,.38,1,1,0,0,1,.3.52,2.76,2.76,0,0,1-.05,1.08l-.9,4.5a6.88,6.88,0,0,1-.8,2.39,2.52,2.52,0,0,1-1.16.94,2.92,2.92,0,0,1-1.6.11,2.43,2.43,0,0,1-1.22-.56,1.93,1.93,0,0,1-.58-.94,5.92,5.92,0,0,1,.17-2l1.07-5.39a4.1,4.1,0,0,1,.34-1.16.79.79,0,0,1,.41-.3,2,2,0,0,1,.91,0l.28.05.06-.3-5.67-1.08-.06.31a2.13,2.13,0,0,1,.93.31.8.8,0,0,1,.29.44,3.74,3.74,0,0,1-.13,1.2l-1.07,5.39a4.64,4.64,0,0,0,0,2.27,3.2,3.2,0,0,0,1.23,1.62,5.33,5.33,0,0,0,2.12.8,4.71,4.71,0,0,0,2.85-.21,3.19,3.19,0,0,0,1.55-1.36,10.82,10.82,0,0,0,.82-2.75l.83-4.18a3.08,3.08,0,0,1,.29-.92,1.18,1.18,0,0,1,.55-.47,1.55,1.55,0,0,1,.81,0l.23,0,.06-.29Zm-9.45.7A4.67,4.67,0,0,0,157,341a8,8,0,0,0-2.92-1.45l-4.79-1.44-.09.29.36.11a1.38,1.38,0,0,1,.66.37.74.74,0,0,1,.24.46,3.51,3.51,0,0,1-.23,1.06L148,347.42a3.85,3.85,0,0,1-.38,1,.93.93,0,0,1-.49.3,1.53,1.53,0,0,1-.76-.08l-.35-.1-.1.29,4.79,1.44a8.75,8.75,0,0,0,1.55.37,7.44,7.44,0,0,0,2,0,5.12,5.12,0,0,0,1.64-.59,5.55,5.55,0,0,0,1.43-1.3,6.43,6.43,0,0,0,1-2A6.12,6.12,0,0,0,158.53,343.56Zm-3,2.36a6.55,6.55,0,0,1-2.12,3.5,2.53,2.53,0,0,1-2.29.3,1.36,1.36,0,0,1-.58-.31.47.47,0,0,1-.14-.3,2.72,2.72,0,0,1,.19-.83l2.59-8.38a5.42,5.42,0,0,1,1.82.81,2.9,2.9,0,0,1,.91,1.71A7.66,7.66,0,0,1,155.5,345.92Zm-10.12-9.27-.12.28a1.55,1.55,0,0,1,1.07.91,2.19,2.19,0,0,1-.22,1.38l-1.74,4.5-2.63-8.46-3.7-1.4-.12.28a1.77,1.77,0,0,1,.68.43,2.39,2.39,0,0,1,.37.77l.12.37-2.87,7.39a1.39,1.39,0,0,1-2.14.95l-.11.29,3.7,1.41.11-.29-.24-.09a1.64,1.64,0,0,1-.83-.68,1.59,1.59,0,0,1,.07-1.37l2.58-6.67L143,348.06l.26.1,3.39-8.73a3.53,3.53,0,0,1,.52-1,1,1,0,0,1,.53-.3,2.81,2.81,0,0,1,1,.11l.11-.28Zm-13-5.54-.13.28.34.15a1.5,1.5,0,0,1,.6.47.78.78,0,0,1,.18.49,3.78,3.78,0,0,1-.38,1l-3.14,6.69a3.6,3.6,0,0,1-.53.91.76.76,0,0,1-.47.22,1.42,1.42,0,0,1-.78-.17l-.34-.15-.13.27,5.3,2.46.13-.28-.33-.16a1.42,1.42,0,0,1-.62-.46.79.79,0,0,1-.17-.49,3.52,3.52,0,0,1,.37-1l3.14-6.7a3.6,3.6,0,0,1,.53-.91.85.85,0,0,1,.48-.21,1.42,1.42,0,0,1,.78.17l.34.15.13-.27Zm-8-3.61a7.83,7.83,0,0,0-2.52-2.07l-4.32-2.49-.16.26.32.19a1.41,1.41,0,0,1,.56.51.88.88,0,0,1,.14.51,4.15,4.15,0,0,1-.47,1l-3.71,6.41a4.22,4.22,0,0,1-.59.87.94.94,0,0,1-.55.17,1.45,1.45,0,0,1-.71-.24l-.33-.19-.15.27,4.33,2.49a9.33,9.33,0,0,0,1.42.7,7.24,7.24,0,0,0,2,.43,4.76,4.76,0,0,0,1.72-.21,5.07,5.07,0,0,0,1.68-.94,6.18,6.18,0,0,0,1.43-1.71,5.94,5.94,0,0,0,.87-3.05A4.7,4.7,0,0,0,124.41,327.5ZM121.86,332A6.54,6.54,0,0,1,119,335a2.48,2.48,0,0,1-2.3-.23,1.47,1.47,0,0,1-.5-.42.46.46,0,0,1-.06-.32,2.59,2.59,0,0,1,.37-.78l4.4-7.59a5.22,5.22,0,0,1,1.58,1.19,2.86,2.86,0,0,1,.5,1.88A7.4,7.4,0,0,1,121.86,332Zm-11.09-.77a5.88,5.88,0,0,1,.17-1.9l2-9.86-.13-.09-8.43,5.07a6.7,6.7,0,0,1-1.76.85,1.71,1.71,0,0,1-1.1-.16l-.17.25,3,2.12.18-.25a2.93,2.93,0,0,1-.78-.79.71.71,0,0,1,.09-.78,2.31,2.31,0,0,1,.7-.61l1-.63,3.23,2.26-.32,1.48a5,5,0,0,1-.16.65,1,1,0,0,1-.13.28.44.44,0,0,1-.37.21A1.75,1.75,0,0,1,107,329l-.17-.13-.18.25,4.42,3.09.18-.25A1.32,1.32,0,0,1,110.77,331.24ZM109,326.05l-2.76-1.93,3.63-2.19Zm-4.11-11.68a7.88,7.88,0,0,0-2.11-2.48l-3.83-3.21-.19.24.28.24a1.42,1.42,0,0,1,.46.6.83.83,0,0,1,0,.53,3.64,3.64,0,0,1-.62.88l-4.76,5.67a5.4,5.4,0,0,1-.73.76,1,1,0,0,1-.57.07,1.5,1.5,0,0,1-.66-.36l-.28-.24-.2.24,3.82,3.2a11.11,11.11,0,0,0,1.27.94,8,8,0,0,0,1.87.77,4.69,4.69,0,0,0,3.54-.55,6.21,6.21,0,0,0,1.71-1.43,6.1,6.1,0,0,0,1.38-2.86A4.67,4.67,0,0,0,104.85,314.37Zm-1.57.93a7.64,7.64,0,0,1-1.71,3.08,6.62,6.62,0,0,1-3.31,2.41,2.52,2.52,0,0,1-2.22-.62,1.47,1.47,0,0,1-.41-.52.44.44,0,0,1,0-.32,2.8,2.8,0,0,1,.5-.7l5.64-6.73a5.22,5.22,0,0,1,1.35,1.46A2.9,2.9,0,0,1,103.28,315.3ZM91.05,301.05l-.21.22.27.26a1.46,1.46,0,0,1,.45.76.83.83,0,0,1-.09.53,5.25,5.25,0,0,1-.63.71l-5.14,5.33a3.39,3.39,0,0,1-.79.69.71.71,0,0,1-.51.05,1.54,1.54,0,0,1-.69-.41l-.26-.26-.22.23,6.94,6.69L93,313.62l-.21-.21a4.05,4.05,0,0,1-2.53.66,3.94,3.94,0,0,1-2.3-1.21l-.48-.47a1.24,1.24,0,0,1-.4-.57.69.69,0,0,1,0-.45,5,5,0,0,1,.74-.87l2.2-2.28a2.64,2.64,0,0,1,.73,1,1.75,1.75,0,0,1,0,1.1,4.31,4.31,0,0,1-.8,1.42l.23.22,4.09-4.24L94,307.5a4.16,4.16,0,0,1-1.82,1,1.75,1.75,0,0,1-1.57-.58l-.16-.16,3.18-3.3.83.8a6.66,6.66,0,0,1,1.14,1.31A2.5,2.5,0,0,1,96,308a3.94,3.94,0,0,1-.73,1.72l.22.23,2.31-2.4Zm-4.22-4.79-.23.21.25.27a1.46,1.46,0,0,1,.37.67.75.75,0,0,1,0,.52,3.64,3.64,0,0,1-.74.79l-5.5,5a3.25,3.25,0,0,1-.83.63.79.79,0,0,1-.52,0,1.51,1.51,0,0,1-.65-.47l-.25-.27-.23.2,3.9,4.34.23-.21-.25-.27A1.42,1.42,0,0,1,82,307a1,1,0,0,1,0-.54,3.85,3.85,0,0,1,.75-.78l5.49-5a3.23,3.23,0,0,1,.84-.63.78.78,0,0,1,.52,0,1.51,1.51,0,0,1,.65.47l.25.28.23-.21Zm-.91-1.4a1,1,0,0,1-.63.19.65.65,0,0,1-.44-.22,4.14,4.14,0,0,1-.38-.94,6.43,6.43,0,0,0-1.16-2.26,6,6,0,0,0-2.51-1.85,6,6,0,0,0-3.16-.34,6,6,0,0,0-2.89,1.29A5.79,5.79,0,0,0,73,293.12a5.11,5.11,0,0,0-.26,3A6.79,6.79,0,0,0,74.15,299,6.14,6.14,0,0,0,76,300.59a6.29,6.29,0,0,0,2.35.61l.75-.61a6.8,6.8,0,0,1-2.41-.43,4.1,4.1,0,0,1-1.56-1.2,3.24,3.24,0,0,1-.83-2,3.75,3.75,0,0,1,.71-2.1,9.47,9.47,0,0,1,1.9-2,7.29,7.29,0,0,1,2.49-1.36,3.63,3.63,0,0,1,2,0,3.34,3.34,0,0,1,1.67,1.11,3.5,3.5,0,0,1,.78,2.25,4.25,4.25,0,0,1-1,2.53l.2.25,3-2.46ZM75.73,281.49a5.35,5.35,0,0,0-3.58-2.64,5.65,5.65,0,0,0-4.41.87,6,6,0,0,0-2.53,3.2,5.67,5.67,0,0,0,.81,5,5.47,5.47,0,0,0,4.33,2.72,6,6,0,0,0,3.83-1A5.68,5.68,0,0,0,76.77,286,5.57,5.57,0,0,0,75.73,281.49Zm-.72,3.6a10.15,10.15,0,0,1-2.57,2.17,9.59,9.59,0,0,1-2.77,1.32,3.39,3.39,0,0,1-2,0,2.35,2.35,0,0,1-1.11-1,2.29,2.29,0,0,1-.26-2.17,7.4,7.4,0,0,1,3-3.18,8.64,8.64,0,0,1,3.47-1.48,2.48,2.48,0,0,1,2.58,1.1,2.4,2.4,0,0,1,.41,1.47A3.19,3.19,0,0,1,75,285.09Zm-3.45-10.48a1.4,1.4,0,0,1-.67.11.51.51,0,0,1-.28-.23,2.21,2.21,0,0,1-.14-.81,5,5,0,0,0-.13-1,3.58,3.58,0,0,0-.39-1,3.39,3.39,0,0,0-2-1.71,3.09,3.09,0,0,0-2.47.26,3,3,0,0,0-1.09,1,4.09,4.09,0,0,0-.54,1.48,13.59,13.59,0,0,0-.07,2.55,9.3,9.3,0,0,1,0,1.76,2.46,2.46,0,0,1-.31.89,1.52,1.52,0,0,1-1.86.65,2,2,0,0,1-1.15-1,3.23,3.23,0,0,1-.26-2.41,5,5,0,0,1,1.71-2.56l-.14-.26L58,274.39l.15.27a1,1,0,0,1,.62.09.78.78,0,0,1,.37.31,1.84,1.84,0,0,1,.17.65,6.85,6.85,0,0,0,.21,1.23,4.61,4.61,0,0,0,.39.93,3.91,3.91,0,0,0,2.21,1.93,3.21,3.21,0,0,0,2.65-.23A3.12,3.12,0,0,0,66.19,278a8.18,8.18,0,0,0,.32-3.21,16.66,16.66,0,0,1,0-2,2.73,2.73,0,0,1,.3-1,1.22,1.22,0,0,1,.5-.48,1.4,1.4,0,0,1,1.14-.08,1.85,1.85,0,0,1,1,.95,3,3,0,0,1,.23,2.19,3.91,3.91,0,0,1-1.41,2.13l.16.29,3.23-1.9ZM244.18,41.25a9.69,9.69,0,0,0-12.72-3.51,9.24,9.24,0,0,0-4.32,5.74,9.23,9.23,0,1,0,17-2.23Zm-3.71,5.91a16.8,16.8,0,0,1-1.91,4.54q-2,3-4.8,2.22c-1.89-.54-2.86-2-2.92-4.43a16.9,16.9,0,0,1,.8-4.87,16.66,16.66,0,0,1,1.88-4.5q2-3.07,4.84-2.26a3.74,3.74,0,0,1,2.64,3A12.55,12.55,0,0,1,240.47,47.16Zm-76.84-1.34a2.57,2.57,0,0,1,1.55-1l-.19-.63-8.51,2.6.19.63a5.44,5.44,0,0,1,1.89-.31c.54.1.92.51,1.15,1.27L160.5,51a1.75,1.75,0,0,1,0,1.23,2.82,2.82,0,0,1-1.93,1.33,4.1,4.1,0,0,1-4.71-1.22,15,15,0,0,1-2.71-5.23,13.35,13.35,0,0,1-.69-6.21,3.88,3.88,0,0,1,2.87-3.16,5.42,5.42,0,0,1,4.56.81,14.23,14.23,0,0,1,2.75,2.42l.63-.19-1.78-5.81-.69.21a2.21,2.21,0,0,1-.14,1,.85.85,0,0,1-.56.48,8.36,8.36,0,0,1-2.07,0,9,9,0,0,0-3.25.35,8.71,8.71,0,0,0-5.52,4.55,9.11,9.11,0,0,0-.48,7A8.93,8.93,0,0,0,151,53.87a9.11,9.11,0,0,0,7.41.59,16.7,16.7,0,0,0,4-1.77,12.12,12.12,0,0,0,2.35-1.83l-1-3.17A2.79,2.79,0,0,1,163.63,45.82Zm18,3.62,5.26-.74-.09-.62a1.9,1.9,0,0,1-.6,0,1.17,1.17,0,0,1-.51-.34l-6.2-6.59a6,6,0,0,0,2.33-1.51,4,4,0,0,0,1.09-3.52c-.27-1.89-1.48-3.05-3.65-3.5a13.52,13.52,0,0,0-4.25,0l-8.27,1.16.09.66a3.64,3.64,0,0,1,1.75.17c.43.25.7.87.85,1.87L171,47.87a2.53,2.53,0,0,1-.22,1.92,3,3,0,0,1-1.71.74l.09.65L177.85,50l-.09-.65a2.68,2.68,0,0,1-1.88-.26,2.77,2.77,0,0,1-.71-1.77l-.71-5,.68-.09Zm-7.26-8-.92-6.54a1,1,0,0,1,.19-.88,2.38,2.38,0,0,1,1.32-.46,2.67,2.67,0,0,1,2.82,1.1,5.59,5.59,0,0,1,.75,2.31c.23,1.62,0,2.71-.66,3.26A7.41,7.41,0,0,1,174.35,41.41Zm26.58-10.17v.66a3.12,3.12,0,0,1,2,.69,2.68,2.68,0,0,1,.48,1.92l-.13,7.94a8,8,0,0,1-.65,3.4c-.72,1.47-2.09,2.18-4.08,2.15a3.24,3.24,0,0,1-3.23-2.07,7.94,7.94,0,0,1-.41-3.06l.15-8.69c0-1,.2-1.63.54-1.9a3.57,3.57,0,0,1,2-.44v-.66L188.84,31v.66a3.28,3.28,0,0,1,1.73.56,2.8,2.8,0,0,1,.36,1.86l-.15,8.69a6.83,6.83,0,0,0,.81,3.68q1.6,2.7,6.08,2.78,3.42.06,5.05-1.71a7.45,7.45,0,0,0,1.69-5.09l.14-8.3a2.27,2.27,0,0,1,.42-1.59,3.91,3.91,0,0,1,1.66-.57v-.66Zm23,3.76a9.64,9.64,0,0,0-4.82-1.85l-8.25-1.31-.1.65a3.2,3.2,0,0,1,1.6.8c.26.29.31.93.15,1.89L210.7,46.52a2.73,2.73,0,0,1-.73,1.75,2.76,2.76,0,0,1-1.77.26l-.1.65,8.54,1.35.1-.65a2.83,2.83,0,0,1-1.7-.78,2.58,2.58,0,0,1-.18-1.92l.76-4.79c1.53.25,2.68.39,3.47.45a7.74,7.74,0,0,0,2.42-.21A4.69,4.69,0,0,0,224,41.2a4.45,4.45,0,0,0,1.06-2.27A4,4,0,0,0,223.91,35Zm-3.27,3.31q-.4,2.56-1.74,3.15a6.66,6.66,0,0,1-3.14,0l1.08-6.9a.76.76,0,0,1,.44-.65,2.62,2.62,0,0,1,1.14,0,2.38,2.38,0,0,1,2.08,1.43A5.92,5.92,0,0,1,220.64,38.31Zm31.11,9.48V51.3A152.63,152.63,0,0,1,330.7,265.36h3.71A155.9,155.9,0,0,0,251.75,47.79ZM40.45,193.38a155.1,155.1,0,0,0,17.59,72h3.71A152.63,152.63,0,0,1,140.7,51.3V47.79A155.84,155.84,0,0,0,40.45,193.38Z"></path></svg>