<?xml version="1.0" encoding="utf-8"?>
<!-- Generator: Adobe Illustrator 21.0.0, SVG Export Plug-In . SVG Version: 6.00 Build 0)  -->
<svg version="1.1" id="Layer_1" xmlns="http://www.w3.org/2000/svg" xmlns:xlink="http://www.w3.org/1999/xlink" x="0px" y="0px"
	 viewBox="0 0 120.6 123.1" style="enable-background:new 0 0 120.6 123.1;" xml:space="preserve">
<style type="text/css">
	.st0{fill:#FFFFFF;}
</style>
<g>
	<path class="st0" d="M69.9,28.8C85.6,33.9,94.3,47.5,94.4,62c-0.2,17-10.5,28.7-24.6,33.7L69.9,28.8z M78.2,42.9l0,38.5
		C87.8,69.6,90.2,56.2,78.2,42.9z M56.1,96.6V27.8c1.3-0.2,2.7-0.2,4.1-0.2c1.3,0,2.6,0.1,3.9,0.2l0.1,68.9l-0.3,0
		C60.7,97.1,59.5,97,56.1,96.6z M35.7,73.1c1.5,4.4,3.8,6.9,7,8.9V65.8H26.3c-0.1-1.2-0.2-2.4-0.2-3.5c0-15.6,10.1-28.7,24-33.1
		v20.4h-7.3v-7.8c-6.3,3.8-8.3,10.8-9.3,16.4h16.7v37.2c-10.6-3.3-18.8-11.6-22.3-22.3L35.7,73.1z"/>
	<path class="st0" d="M107.8,91.8l-1.5-0.2l0.8,1.3L107.8,91.8z M108.1,91.9l-0.8,1.2l0.2,0.4c0.1,0.1,0.1,0.2,0.2,0.2
		c0.1,0.1,0.2,0.1,0.3,0c0.1,0,0.2-0.1,0.3-0.3l0.1,0.1l-0.7,1.1l-0.1-0.1c0.1-0.1,0.1-0.3,0-0.4c0-0.1-0.1-0.3-0.3-0.6l-1.9-2.9
		v-0.1l3.6,0.6c0.4,0,0.6,0.1,0.7,0c0.1,0,0.2-0.1,0.2-0.2l0.1,0l-1.1,1.6l-0.1-0.1l0.1-0.1c0.1-0.1,0.1-0.2,0.1-0.3
		c0-0.1,0-0.1-0.1-0.2c-0.1,0-0.1,0-0.1,0c0,0-0.1,0-0.2,0L108.1,91.9z M102.5,94.7l3.2-0.1l-1.4-1c-0.2-0.2-0.3-0.2-0.4-0.2
		c-0.2,0-0.3,0.1-0.4,0.3l-0.1-0.1l0.8-1.1l0.1,0.1c-0.1,0.2-0.1,0.3-0.1,0.3c0,0.1,0,0.1,0.1,0.2c0,0.1,0.1,0.2,0.3,0.3l2.7,2
		l-0.1,0.1l-4.3,0.2l2,1.5c0.2,0.1,0.3,0.2,0.5,0.1c0.1,0,0.2-0.1,0.3-0.2l0.1-0.1l0.1,0.1l-0.8,1.2l-0.1-0.1
		c0.1-0.2,0.2-0.3,0.2-0.5c0-0.1-0.1-0.2-0.3-0.4l-2.2-1.7l-0.1,0c-0.1,0-0.2,0-0.3,0c-0.1,0-0.1,0.1-0.2,0.2l-0.1-0.1L102.5,94.7z
		 M102.3,99.1l-1.4-0.5l0.6,1.4L102.3,99.1z M102.6,99.1l-0.9,1.1l0.2,0.4c0.1,0.1,0.1,0.2,0.2,0.3c0.1,0.1,0.2,0.1,0.3,0.1
		c0.1,0,0.2-0.1,0.3-0.2l0.1,0.1l-0.9,1l-0.1-0.1c0.1-0.1,0.1-0.3,0.1-0.4c0-0.1-0.1-0.4-0.2-0.7l-1.5-3.2l0,0l3.4,1
		c0.3,0.1,0.5,0.1,0.7,0.1c0.1,0,0.2-0.1,0.3-0.1l0.1,0.1l-1.3,1.5l-0.1-0.1l0.1-0.1c0.1-0.1,0.2-0.2,0.2-0.3c0,0,0-0.1-0.1-0.1
		c0,0-0.1,0-0.1-0.1c0,0-0.1,0-0.2-0.1L102.6,99.1z M98.6,99.2l1,1l-0.1,0.1c-0.3-0.2-0.6-0.3-0.9-0.3c-0.3,0-0.6,0.1-0.8,0.4
		c-0.2,0.2-0.3,0.4-0.4,0.6c-0.1,0.2,0,0.5,0.1,0.7c0.1,0.3,0.3,0.6,0.5,0.9c0.2,0.3,0.5,0.4,0.8,0.6c0.3,0.2,0.6,0.2,0.8,0.2
		c0.2,0,0.5-0.1,0.7-0.3c0.2-0.2,0.3-0.4,0.4-0.6c0.1-0.2,0.1-0.5,0.1-0.9l0.3,0.2c0,0.3-0.1,0.6-0.2,0.9c-0.1,0.2-0.3,0.5-0.5,0.7
		c-0.3,0.3-0.7,0.5-1,0.6c-0.4,0.1-0.7,0.1-1.1,0c-0.4-0.1-0.7-0.3-0.9-0.5c-0.3-0.3-0.4-0.6-0.5-1c-0.1-0.4-0.1-0.8,0.1-1.1
		c0.1-0.4,0.3-0.7,0.6-0.9c0.2-0.2,0.5-0.4,0.8-0.5c0.2-0.1,0.3-0.1,0.3-0.2c0,0,0.1-0.1,0.1-0.2C98.6,99.4,98.6,99.3,98.6,99.2
		L98.6,99.2z M98.1,105.1L98.1,105.1l-1.5,1.5l-0.1-0.1l0.1-0.1c0.1-0.1,0.1-0.2,0.2-0.2c0-0.1,0-0.1,0-0.2c0-0.1-0.1-0.1-0.2-0.3
		l-1.7-2c-0.1-0.2-0.2-0.3-0.3-0.3c-0.1,0-0.1,0-0.2,0c-0.1,0-0.2,0-0.2,0.1l-0.1,0.1l-0.1-0.1l1.6-1.4l0.1,0.1l-0.1,0.1
		c-0.1,0.1-0.1,0.2-0.2,0.2c0,0.1,0,0.1,0,0.2c0,0.1,0.1,0.2,0.2,0.3l1.7,2c0.1,0.2,0.2,0.2,0.3,0.3c0.1,0,0.1,0,0.2,0
		c0.1,0,0.1-0.1,0.2-0.1L98.1,105.1z M91.6,105.4l3.1,0.8l-1-1.4c-0.1-0.2-0.3-0.3-0.4-0.3c-0.1,0-0.3,0-0.5,0.1l-0.1-0.1l1.1-0.8
		l0.1,0.1c-0.1,0.1-0.2,0.2-0.3,0.3c0,0.1,0,0.1,0,0.2c0,0.1,0.1,0.2,0.2,0.3l2,2.7l-0.1,0.1l-4.2-1l1.5,2c0.1,0.2,0.3,0.3,0.4,0.3
		c0.1,0,0.2,0,0.4-0.1l0.1-0.1l0.1,0.1l-1.2,0.9l-0.1-0.1c0.2-0.1,0.3-0.3,0.3-0.4c0-0.1,0-0.3-0.2-0.5l-1.7-2.3l-0.1,0
		c-0.1,0-0.2,0-0.3,0c-0.1,0-0.2,0.1-0.2,0.1l-0.1-0.1L91.6,105.4z M92.4,109.6l0.1,0.1l-1.8,1.1l-0.1-0.1l0.1-0.1
		c0.1-0.1,0.2-0.1,0.2-0.2c0-0.1,0.1-0.1,0-0.2c0-0.1-0.1-0.2-0.2-0.3l-1.5-2.2c-0.1-0.2-0.2-0.3-0.2-0.3c-0.1,0-0.1,0-0.2,0
		c-0.1,0-0.2,0-0.2,0.1l-0.1,0.1l-0.1-0.1l1.8-1.2l0.1,0.1l-0.1,0.1c-0.1,0.1-0.2,0.1-0.2,0.2c0,0.1-0.1,0.1,0,0.2
		c0,0.1,0.1,0.2,0.2,0.3l1.5,2.2c0.1,0.2,0.2,0.3,0.2,0.3c0.1,0,0.1,0,0.2,0c0.1,0,0.2,0,0.3-0.1L92.4,109.6z M87.3,111.3l-0.3-2.9
		l1.5-0.8l0,0.1l-0.1,0.1c-0.1,0.1-0.2,0.1-0.2,0.2c0,0.1,0,0.1,0,0.2c0,0,0.1,0.2,0.1,0.3l1.3,2.3c0.1,0.2,0.2,0.3,0.2,0.3
		c0,0,0.1,0.1,0.2,0.1c0.1,0,0.2,0,0.3-0.1l0.1-0.1l0.1,0.1l-1.8,1l-0.1-0.1l0.1-0.1c0.1-0.1,0.2-0.1,0.2-0.2c0-0.1,0.1-0.1,0-0.2
		c0-0.1-0.1-0.2-0.1-0.3l-1.4-2.6l0.4,4l-0.1,0l-3.1-2.4l1.4,2.5c0.1,0.2,0.2,0.3,0.2,0.3c0.1,0.1,0.1,0.1,0.2,0.2
		c0.1,0,0.2,0,0.4-0.1l0.1,0.1l-1.2,0.7l0-0.1l0,0c0.1,0,0.2-0.1,0.2-0.2c0.1-0.1,0.1-0.1,0.1-0.2c0-0.1,0-0.1,0-0.2
		c0,0-0.1-0.1-0.1-0.3l-1.2-2.2c-0.1-0.2-0.2-0.3-0.2-0.3c-0.1,0-0.1-0.1-0.2-0.1c-0.1,0-0.2,0-0.3,0.1l-0.1,0.1l-0.1-0.1l1.5-0.8
		L87.3,111.3z M81.6,111.4c-0.3,0.2-0.5,0.4-0.5,0.9c0,0.4,0.1,0.8,0.3,1.3c0.2,0.6,0.6,1.1,0.9,1.2c0.2,0.2,0.5,0.2,0.8,0
		c0.2-0.1,0.3-0.2,0.4-0.3c0.1-0.2,0.2-0.4,0.1-0.7c0-0.3-0.1-0.6-0.3-1.1c-0.2-0.5-0.4-0.8-0.6-1c-0.2-0.2-0.4-0.3-0.6-0.4
		C82,111.3,81.8,111.3,81.6,111.4z M81.5,111.2c0.6-0.3,1.2-0.3,1.7-0.1c0.5,0.2,0.9,0.6,1.1,1.1c0.2,0.5,0.2,1,0.1,1.4
		c-0.2,0.6-0.6,1.1-1.3,1.4c-0.7,0.3-1.3,0.3-1.8,0c-0.4-0.2-0.7-0.6-1-1.1c-0.2-0.6-0.2-1.1,0-1.6
		C80.5,111.8,80.9,111.4,81.5,111.2z M76.8,113.3l1,3c0,0.1,0.1,0.2,0.1,0.3c0,0,0.1,0.1,0.1,0.1c0,0,0.1,0,0.2,0
		c0.3-0.1,0.5-0.3,0.6-0.6c0.1-0.4,0.1-0.8-0.1-1.5c-0.2-0.5-0.4-0.8-0.6-1.1c-0.2-0.2-0.4-0.3-0.6-0.3
		C77.4,113.2,77.2,113.2,76.8,113.3z M76.6,117.4L76.6,117.4l0.1-0.1c0.1,0,0.2-0.1,0.2-0.1C77,117.1,77,117,77,117
		c0-0.1,0-0.2-0.1-0.4l-0.9-2.5c-0.1-0.2-0.1-0.3-0.1-0.4c-0.1-0.1-0.1-0.1-0.2-0.1c-0.1,0-0.2,0-0.3,0l-0.1,0l0-0.1L77,113
		c0.5-0.2,0.8-0.2,1.2-0.2c0.4,0,0.7,0.2,1,0.4c0.3,0.2,0.5,0.5,0.6,0.9c0.1,0.3,0.1,0.5,0.1,0.8c0,0.3-0.1,0.5-0.2,0.7
		c-0.1,0.2-0.2,0.4-0.3,0.5c-0.2,0.2-0.4,0.3-0.6,0.4c-0.1,0.1-0.3,0.1-0.5,0.2L76.6,117.4z M74.1,116.7l0.2,1.4l-3.5,0.8l0-0.1
		l0.1,0c0.1,0,0.2-0.1,0.3-0.1c0,0,0.1-0.1,0.1-0.2c0-0.1,0-0.2-0.1-0.4l-0.6-2.6c-0.1-0.2-0.1-0.3-0.1-0.3
		c-0.1-0.1-0.1-0.1-0.2-0.1c-0.1,0-0.2,0-0.3,0l-0.1,0l0-0.1l2.1-0.5l0,0.1l-0.2,0c-0.1,0-0.2,0.1-0.3,0.1c0,0-0.1,0.1-0.1,0.2
		c0,0.1,0,0.2,0.1,0.4l0.6,2.5c0.1,0.2,0.1,0.3,0.1,0.4c0.1,0.1,0.1,0.1,0.2,0.1c0.1,0,0.2,0,0.4-0.1l0.3-0.1
		c0.2-0.1,0.4-0.1,0.5-0.2c0.1-0.1,0.2-0.2,0.3-0.4c0.1-0.2,0.1-0.4,0.1-0.8L74.1,116.7z M68.3,118l-0.8-1.3l-0.4,1.5L68.3,118z
		 M68.4,118.2l-1.4,0.2l-0.1,0.4c0,0.1-0.1,0.2,0,0.3c0,0.1,0.1,0.2,0.2,0.2c0.1,0,0.2,0,0.4,0l0,0.1l-1.3,0.2l0-0.1
		c0.1,0,0.2-0.1,0.3-0.2c0.1-0.1,0.2-0.3,0.2-0.7l0.9-3.4l0.1,0l2,3c0.2,0.3,0.3,0.4,0.4,0.5c0.1,0.1,0.2,0.1,0.3,0.1l0,0.1
		l-1.9,0.3l0-0.1l0.1,0c0.2,0,0.3-0.1,0.3-0.1c0,0,0-0.1,0-0.1c0,0,0-0.1,0-0.1c0,0-0.1-0.1-0.1-0.2L68.4,118.2z M65.7,119.6l0,0.1
		l-2.1,0.2l0-0.1l0.1,0c0.1,0,0.2,0,0.3-0.1c0,0,0.1-0.1,0.1-0.2c0,0,0-0.2,0-0.4l-0.2-2.7c0-0.2,0-0.3-0.1-0.4
		c0-0.1-0.1-0.1-0.1-0.1c-0.1,0-0.2,0-0.3,0l-0.1,0l0-0.1l2.1-0.2v0.1l-0.1,0c-0.1,0-0.2,0-0.3,0.1c-0.1,0-0.1,0.1-0.1,0.1
		c0,0.1,0,0.2,0,0.4l0.2,2.6c0,0.2,0,0.3,0.1,0.4c0,0.1,0.1,0.1,0.1,0.1c0.1,0,0.2,0,0.3,0L65.7,119.6z M60.4,116.2l0.1,1.8h0.2
		c0.3,0,0.5,0,0.6-0.1c0.1-0.1,0.2-0.1,0.3-0.3c0.1-0.1,0.1-0.3,0.1-0.5c0-0.3-0.1-0.5-0.2-0.7c-0.1-0.1-0.4-0.2-0.7-0.2L60.4,116.2
		z M60.4,118.2l0,1.1c0,0.2,0,0.4,0,0.4c0,0.1,0.1,0.1,0.1,0.1c0.1,0,0.2,0,0.4,0v0.1l-2,0.1v-0.1c0.2,0,0.3,0,0.4-0.1
		c0.1,0,0.1-0.1,0.1-0.2c0,0,0-0.2,0-0.4l-0.1-2.6c0-0.2,0-0.3,0-0.4c0-0.1-0.1-0.1-0.1-0.1c-0.1,0-0.2,0-0.4,0V116l1.9-0.1
		c0.5,0,0.8,0,1.1,0.1c0.2,0.1,0.4,0.2,0.6,0.4c0.1,0.2,0.2,0.4,0.2,0.6c0,0.3-0.1,0.6-0.3,0.8c-0.1,0.1-0.3,0.2-0.6,0.3l1,1.3
		c0.1,0.2,0.2,0.3,0.3,0.3c0.1,0.1,0.2,0.1,0.3,0.1l0,0.1l-1.3,0.1l-1.3-1.8L60.4,118.2z M58.8,116l-0.1,1.1h-0.1
		c-0.1-0.3-0.1-0.4-0.2-0.6c-0.1-0.1-0.2-0.2-0.3-0.3c-0.1-0.1-0.2-0.1-0.4-0.1l-0.3,0l-0.2,3.1c0,0.2,0,0.3,0,0.4
		c0,0.1,0.1,0.1,0.1,0.1c0.1,0.1,0.2,0.1,0.3,0.1l0.1,0l0,0.1l-2.1-0.1v-0.1l0.1,0c0.1,0,0.2,0,0.3,0c0,0,0.1-0.1,0.1-0.1
		c0-0.1,0.1-0.2,0.1-0.4l0.2-3.1l-0.3,0c-0.3,0-0.5,0-0.6,0.1c-0.2,0.2-0.3,0.4-0.4,0.7l-0.1,0l0.1-1.1L58.8,116z M54.4,115.6
		l-0.1,1.3l-0.1,0c0-0.3-0.1-0.6-0.3-0.9c-0.2-0.2-0.4-0.3-0.7-0.4c-0.2,0-0.4,0-0.5,0.1c-0.1,0.1-0.2,0.2-0.2,0.3
		c0,0.1,0,0.2,0,0.2c0,0.1,0.1,0.2,0.2,0.3c0.1,0.1,0.3,0.2,0.6,0.4c0.4,0.3,0.7,0.5,0.8,0.8c0.1,0.2,0.2,0.5,0.2,0.7
		c0,0.3-0.2,0.6-0.5,0.8c-0.3,0.2-0.6,0.3-1,0.2c-0.1,0-0.2,0-0.4-0.1c-0.1,0-0.2-0.1-0.4-0.2c-0.1,0-0.2-0.1-0.2-0.1
		c-0.1,0-0.1,0-0.2,0c-0.1,0-0.1,0.1-0.2,0.1h-0.1l0.2-1.5h0.1c0,0.4,0.2,0.8,0.4,1c0.2,0.2,0.5,0.4,0.8,0.4c0.2,0,0.4,0,0.5-0.1
		c0.2-0.1,0.2-0.2,0.3-0.4c0-0.1,0-0.2,0-0.3c-0.1-0.1-0.1-0.2-0.2-0.3c-0.1-0.1-0.3-0.2-0.5-0.4c-0.3-0.2-0.6-0.4-0.7-0.5
		c-0.1-0.1-0.2-0.3-0.3-0.5c-0.1-0.2-0.1-0.3-0.1-0.5c0.1-0.3,0.2-0.6,0.5-0.8c0.3-0.2,0.6-0.3,0.9-0.2c0.1,0,0.2,0,0.4,0.1
		c0.1,0,0.2,0.1,0.3,0.2c0.1,0.1,0.2,0.1,0.3,0.1c0.1,0,0.1,0,0.1,0C54.2,115.8,54.3,115.7,54.4,115.6L54.4,115.6z M47.5,114.6
		l2,0.4l0,0.1l-0.1,0c-0.2,0-0.3,0-0.3,0c-0.1,0-0.1,0.1-0.1,0.1c0,0.1-0.1,0.2-0.1,0.4l-0.4,1.9c-0.1,0.4-0.1,0.6-0.1,0.7
		c0,0.1,0.1,0.2,0.2,0.3c0.1,0.1,0.2,0.2,0.4,0.2c0.2,0,0.4,0,0.6-0.1c0.2-0.1,0.3-0.2,0.4-0.3c0.1-0.2,0.2-0.4,0.3-0.9l0.3-1.6
		c0-0.2,0-0.3,0-0.4c0-0.1,0-0.2-0.1-0.2c-0.1-0.1-0.2-0.1-0.4-0.1l0-0.1l1.4,0.3l0,0.1l-0.1,0c-0.1,0-0.2,0-0.3,0
		c-0.1,0-0.1,0.1-0.2,0.2c0,0.1-0.1,0.2-0.1,0.3l-0.3,1.5c-0.1,0.5-0.2,0.8-0.3,1c-0.1,0.2-0.3,0.4-0.5,0.5c-0.3,0.1-0.6,0.1-1,0.1
		c-0.4-0.1-0.6-0.2-0.8-0.3c-0.2-0.2-0.4-0.3-0.4-0.6c-0.1-0.2-0.1-0.5,0-0.8l0.4-1.9c0-0.2,0.1-0.4,0-0.4c0,0-0.1-0.1-0.1-0.2
		c-0.1,0-0.2-0.1-0.3-0.1L47.5,114.6z M44.8,114l-0.9,3c-0.1,0.1-0.1,0.3-0.1,0.3c0,0,0,0.1,0,0.1c0.1,0,0.1,0.1,0.2,0.1
		c0.3,0.1,0.6,0.1,0.8-0.1c0.3-0.2,0.6-0.6,0.8-1.2c0.1-0.5,0.2-0.9,0.1-1.3c0-0.3-0.2-0.5-0.3-0.6C45.4,114.2,45.2,114.1,44.8,114z
		 M42.2,117.2l0-0.1l0.1,0c0.1,0,0.2,0,0.3,0c0.1,0,0.1-0.1,0.2-0.1c0,0,0.1-0.2,0.2-0.3l0.8-2.5c0.1-0.2,0.1-0.3,0.1-0.4
		c0,0,0-0.1-0.1-0.2c-0.1-0.1-0.1-0.1-0.2-0.2l-0.1,0l0-0.1l1.7,0.5c0.5,0.2,0.8,0.3,1,0.5c0.3,0.3,0.5,0.6,0.6,0.9
		c0.1,0.4,0.1,0.7-0.1,1.1c-0.1,0.3-0.2,0.5-0.4,0.7c-0.1,0.2-0.3,0.4-0.5,0.5c-0.2,0.1-0.4,0.2-0.6,0.2c-0.2,0.1-0.5,0.1-0.7,0
		c-0.1,0-0.3-0.1-0.6-0.1L42.2,117.2z M40.7,112.4l1,3l0.6-1.6c0.1-0.2,0.1-0.4,0.1-0.5c-0.1-0.1-0.2-0.3-0.4-0.3l0-0.1l1.2,0.5
		l0,0.1c-0.2,0-0.3,0-0.4,0c-0.1,0-0.1,0-0.2,0.1c-0.1,0.1-0.1,0.2-0.2,0.4l-1.2,3.1l-0.1,0l-1.3-4.1l-0.9,2.4
		c-0.1,0.2-0.1,0.4,0,0.5c0.1,0.1,0.2,0.2,0.3,0.2l0.1,0l0,0.1l-1.3-0.5l0-0.1c0.2,0.1,0.4,0.1,0.5,0c0.1-0.1,0.2-0.2,0.3-0.4l1-2.7
		l0-0.1c0-0.1-0.1-0.2-0.1-0.3c-0.1,0-0.1-0.1-0.2-0.2l0.1-0.1L40.7,112.4z M37.6,115.3L37.6,115.3l-1.9-0.8l0-0.1l0.1,0.1
		c0.1,0,0.2,0.1,0.3,0.1c0.1,0,0.1,0,0.2-0.1c0,0,0.1-0.1,0.2-0.3l1.1-2.4c0.1-0.2,0.1-0.3,0.1-0.4c0-0.1,0-0.1-0.1-0.2
		c0,0-0.1-0.1-0.2-0.1l-0.1-0.1l0.1-0.1l1.9,0.9l-0.1,0.1l-0.1-0.1c-0.1,0-0.2-0.1-0.3-0.1c0,0-0.1,0-0.2,0.1c0,0-0.1,0.1-0.2,0.3
		l-1.1,2.4c-0.1,0.2-0.1,0.3-0.1,0.4c0,0.1,0,0.1,0.1,0.2c0.1,0.1,0.1,0.1,0.2,0.2L37.6,115.3z M33.3,108.9l-1.6,2.7
		c-0.1,0.1-0.1,0.2-0.1,0.3c0,0,0,0.1,0,0.1c0,0,0.1,0.1,0.2,0.2c0.3,0.2,0.6,0.2,0.8,0.1c0.4-0.2,0.7-0.5,1-1
		c0.3-0.5,0.4-0.8,0.4-1.2c0-0.3-0.1-0.5-0.2-0.7C33.7,109.2,33.6,109,33.3,108.9z M30,111.4L30,111.4l0.2,0
		c0.1,0.1,0.2,0.1,0.3,0.1c0.1,0,0.1,0,0.2-0.1c0,0,0.1-0.1,0.2-0.3l1.3-2.3c0.1-0.2,0.1-0.3,0.2-0.4c0-0.1,0-0.1,0-0.2
		c-0.1-0.1-0.1-0.1-0.2-0.2L32,108l0.1-0.1l1.6,0.9c0.4,0.2,0.7,0.5,0.9,0.7c0.2,0.3,0.3,0.7,0.3,1c0,0.4-0.1,0.7-0.3,1.1
		c-0.2,0.2-0.3,0.5-0.5,0.6c-0.2,0.1-0.4,0.3-0.6,0.3c-0.2,0.1-0.4,0.1-0.6,0.1c-0.2,0-0.5-0.1-0.7-0.2c-0.1-0.1-0.3-0.1-0.5-0.3
		L30,111.4z M29,109l0.3-1.5l-1.3,0.8L29,109z M28.9,109.3l-1.2-0.8l-0.4,0.2c-0.1,0.1-0.2,0.2-0.2,0.2c-0.1,0.1-0.1,0.2,0,0.3
		c0,0.1,0.1,0.2,0.3,0.3l0,0.1l-1.1-0.8l0.1-0.1c0.1,0.1,0.3,0.1,0.4,0.1c0.1,0,0.3-0.1,0.6-0.3l3-1.8l0.1,0l-0.7,3.5
		c-0.1,0.3-0.1,0.6-0.1,0.7c0,0.1,0.1,0.2,0.2,0.3l-0.1,0.1l-1.6-1.1l0.1-0.1l0.1,0.1c0.1,0.1,0.2,0.1,0.3,0.1c0.1,0,0.1,0,0.1-0.1
		c0,0,0-0.1,0.1-0.1c0,0,0-0.1,0.1-0.2L28.9,109.3z M26.4,103.9l-2,2.4c-0.1,0.1-0.2,0.2-0.2,0.2c0,0,0,0.1,0,0.1
		c0,0.1,0.1,0.1,0.1,0.2c0.2,0.2,0.5,0.3,0.8,0.2c0.4-0.1,0.8-0.4,1.2-0.9c0.3-0.4,0.5-0.8,0.6-1.1c0.1-0.3,0-0.5-0.1-0.7
		C26.8,104.3,26.6,104.2,26.4,103.9z M22.7,105.9L22.7,105.9h0.2c0.1,0.1,0.2,0.1,0.2,0.1c0.1,0,0.1,0,0.2,0c0,0,0.1-0.1,0.3-0.3
		l1.7-2.1c0.1-0.2,0.2-0.3,0.2-0.3c0,0,0-0.1,0-0.2c0-0.1-0.1-0.2-0.2-0.2l-0.1-0.1l0.1-0.1l1.4,1.1c0.4,0.3,0.6,0.6,0.8,0.9
		c0.2,0.4,0.2,0.7,0.2,1.1c-0.1,0.4-0.2,0.7-0.5,1c-0.2,0.2-0.4,0.4-0.6,0.5c-0.2,0.1-0.5,0.2-0.7,0.2c-0.2,0-0.4,0-0.6,0
		c-0.2-0.1-0.4-0.1-0.7-0.3c-0.1-0.1-0.3-0.2-0.5-0.3L22.7,105.9z M23.5,101.3l-1.2,1.2l0.1,0.1c0.2,0.2,0.4,0.2,0.6,0.2
		c0.2,0,0.4-0.2,0.7-0.4l0.1,0.1l-1.5,1.5l-0.1-0.1c0.1-0.2,0.2-0.4,0.3-0.5c0.1-0.1,0.1-0.3,0-0.4c0-0.1-0.1-0.2-0.3-0.4l-0.8,0.8
		c-0.2,0.2-0.2,0.3-0.3,0.3c0,0.1,0,0.1,0,0.2c0,0.1,0.1,0.1,0.2,0.2l0.2,0.2c0.3,0.3,0.5,0.4,0.8,0.4c0.3,0,0.6-0.1,0.9-0.2
		l0.1,0.1l-1,0.8l-2.5-2.4l0.1-0.1l0.1,0.1c0.1,0.1,0.1,0.1,0.2,0.2c0.1,0,0.1,0,0.2,0c0.1,0,0.1-0.1,0.3-0.2l1.9-1.9
		c0.1-0.1,0.2-0.2,0.2-0.2c0-0.1,0.1-0.1,0-0.2c0-0.1-0.1-0.2-0.1-0.3l-0.1-0.1l0.1-0.1l2.4,2.3l-0.9,0.9l-0.1-0.1
		c0.2-0.2,0.3-0.5,0.3-0.6c0-0.2,0-0.3-0.1-0.5c-0.1-0.1-0.2-0.3-0.4-0.5L23.5,101.3z M19.5,102.5L19.5,102.5l-1.5-1.5l0.1-0.1
		l0.1,0.1c0.1,0.1,0.1,0.1,0.2,0.2c0.1,0,0.1,0,0.2,0c0.1,0,0.2-0.1,0.3-0.2l2-1.8c0.2-0.1,0.2-0.2,0.3-0.3c0,0,0-0.1,0-0.2
		c0-0.1-0.1-0.2-0.1-0.2l-0.1-0.1l0.1-0.1l1.4,1.5l-0.1,0.1l-0.1-0.1c-0.1-0.1-0.2-0.2-0.2-0.2c-0.1,0-0.1,0-0.2,0
		c-0.1,0-0.2,0.1-0.3,0.2l-2,1.8c-0.2,0.1-0.2,0.2-0.3,0.3c0,0.1,0,0.1,0,0.2c0,0.1,0.1,0.1,0.1,0.2L19.5,102.5z M20.8,97.9
		l-1.1,0.9l-0.1-0.1c0.2-0.3,0.3-0.6,0.3-0.9c0-0.3-0.1-0.6-0.3-0.8c-0.1-0.2-0.3-0.3-0.6-0.4c-0.2-0.1-0.5-0.1-0.7,0
		c-0.3,0.1-0.6,0.3-0.9,0.5c-0.3,0.2-0.5,0.5-0.7,0.7c-0.2,0.3-0.2,0.5-0.2,0.8c0,0.2,0.1,0.5,0.3,0.7c0.1,0.2,0.3,0.3,0.6,0.4
		c0.2,0.1,0.5,0.1,0.9,0.1l-0.3,0.2c-0.3,0-0.6-0.1-0.9-0.2c-0.2-0.1-0.4-0.3-0.7-0.5c-0.3-0.3-0.4-0.7-0.5-1.1
		c-0.1-0.4,0-0.7,0.1-1.1c0.1-0.4,0.4-0.6,0.6-0.9c0.3-0.2,0.6-0.4,1-0.5c0.4-0.1,0.8,0,1.1,0.1c0.4,0.2,0.7,0.4,0.9,0.7
		c0.2,0.2,0.3,0.5,0.4,0.8c0.1,0.2,0.1,0.3,0.1,0.3c0,0.1,0.1,0.1,0.2,0.1C20.5,97.9,20.6,97.9,20.8,97.9L20.8,97.9z M16.9,93.2
		c-0.2-0.3-0.5-0.4-0.9-0.4c-0.4,0-0.8,0.2-1.3,0.5c-0.6,0.4-0.9,0.8-1.1,1.1c-0.1,0.3-0.1,0.5,0.1,0.8c0.1,0.2,0.2,0.3,0.4,0.3
		c0.2,0.1,0.5,0.1,0.7,0c0.3-0.1,0.6-0.2,1-0.5c0.4-0.3,0.7-0.6,0.9-0.8c0.2-0.2,0.3-0.4,0.3-0.6C17,93.5,17,93.3,16.9,93.2z M17,93
		c0.4,0.5,0.5,1.1,0.4,1.6c-0.1,0.6-0.4,1-0.9,1.3c-0.4,0.3-0.9,0.4-1.4,0.4c-0.6-0.1-1.2-0.4-1.5-1c-0.4-0.6-0.5-1.2-0.3-1.8
		c0.1-0.5,0.4-0.9,0.9-1.2c0.5-0.3,1-0.4,1.6-0.3C16.3,92.2,16.7,92.5,17,93z M15.6,90.6l-1.2,0.7l-0.1-0.1c0.3-0.2,0.4-0.5,0.5-0.8
		c0.1-0.3,0-0.6-0.1-0.8c-0.1-0.2-0.2-0.3-0.4-0.4c-0.1,0-0.3,0-0.4,0c-0.1,0-0.1,0.1-0.2,0.2c-0.1,0.1-0.1,0.2-0.1,0.4
		c0,0.1,0,0.4,0,0.7c0,0.5,0,0.9-0.1,1.2c-0.1,0.2-0.3,0.4-0.5,0.6c-0.3,0.2-0.6,0.2-1,0.1c-0.3-0.1-0.6-0.3-0.8-0.7
		c-0.1-0.1-0.1-0.2-0.1-0.3c0-0.1-0.1-0.3-0.1-0.4c0-0.1,0-0.2-0.1-0.2c0,0-0.1-0.1-0.1-0.1c-0.1,0-0.1,0-0.2,0l-0.1-0.1l1.3-0.7
		l0.1,0.1c-0.3,0.3-0.5,0.6-0.6,0.9c-0.1,0.3,0,0.6,0.1,0.9c0.1,0.2,0.2,0.3,0.4,0.4c0.2,0.1,0.3,0,0.5,0c0.1-0.1,0.1-0.1,0.2-0.2
		c0.1-0.1,0.1-0.2,0.1-0.3c0-0.1,0-0.3,0-0.6c0-0.4,0-0.7,0-0.9c0-0.2,0.1-0.4,0.2-0.5c0.1-0.2,0.2-0.3,0.4-0.4
		c0.3-0.2,0.6-0.2,0.9-0.1c0.3,0.1,0.6,0.3,0.7,0.6c0.1,0.1,0.1,0.2,0.1,0.4c0,0.1,0,0.2,0.1,0.4c0,0.2,0,0.2,0,0.3
		c0,0,0.1,0.1,0.1,0.1C15.3,90.6,15.4,90.6,15.6,90.6L15.6,90.6z M77.6,6.7c0.4,0.8,0.5,1.6,0.2,2.6c-0.2,0.9-0.8,1.6-1.6,2
		c-0.8,0.4-1.6,0.5-2.5,0.2c-1-0.3-1.6-0.8-2.1-1.6c-0.4-0.8-0.5-1.6-0.2-2.4c0.3-0.9,0.8-1.6,1.5-2.1c0.8-0.5,1.6-0.5,2.6-0.3
		C76.5,5.4,77.1,6,77.6,6.7z M75.5,10.5c0.3-0.4,0.5-0.9,0.7-1.6c0.3-1,0.3-1.7,0.2-2.3c-0.1-0.6-0.4-0.9-0.9-1
		c-0.7-0.2-1.3,0.1-1.8,0.8c-0.3,0.4-0.5,0.9-0.7,1.6c-0.2,0.7-0.3,1.3-0.3,1.7c0,0.9,0.4,1.4,1,1.6C74.5,11.5,75.1,11.2,75.5,10.5z
		 M42.7,6.8c0.4-0.8,1.1-1.4,2-1.6C45.1,5.1,45.5,5,45.9,5c0.4,0,0.7,0,0.8,0c0.1,0,0.2-0.1,0.2-0.2c0-0.1,0-0.2,0-0.3l0.3-0.1
		l0.6,2.1l-0.2,0.1c-0.4-0.4-0.7-0.7-1-0.9c-0.6-0.4-1.1-0.5-1.6-0.3c-0.6,0.2-0.9,0.5-1,1.1c-0.1,0.6,0,1.3,0.3,2.2
		c0.2,0.8,0.5,1.4,1,1.9c0.4,0.5,1,0.6,1.7,0.4c0.4-0.1,0.6-0.3,0.7-0.5c0.1-0.1,0-0.3,0-0.5l-0.3-0.9C47.1,9,47,8.8,46.8,8.8
		c-0.1,0-0.4,0-0.7,0.1L46,8.7l3.1-0.9L49.2,8c-0.3,0.1-0.5,0.2-0.6,0.4c-0.1,0.1,0,0.4,0.1,0.7l0.3,1.1c-0.2,0.2-0.4,0.4-0.8,0.7
		c-0.4,0.2-0.9,0.5-1.4,0.6c-1,0.3-1.9,0.2-2.7-0.2c-0.7-0.4-1.2-1.1-1.5-1.9C42.3,8.4,42.3,7.6,42.7,6.8z M50.6,10.1
		c0.3-0.1,0.5-0.2,0.6-0.3c0.1-0.1,0.1-0.4,0.1-0.7L50.7,5c-0.1-0.4-0.1-0.6-0.3-0.7c-0.1-0.1-0.3-0.1-0.6-0.1l0-0.2l3-0.4
		c0.6-0.1,1.1-0.1,1.5,0c0.8,0.2,1.2,0.6,1.3,1.3c0.1,0.5-0.1,0.9-0.4,1.3c-0.2,0.3-0.5,0.4-0.8,0.5L56.5,9c0.1,0.1,0.1,0.1,0.2,0.1
		c0.1,0,0.1,0,0.2,0l0,0.2l-1.9,0.3L52.7,7l-0.2,0l0.3,1.8c0,0.3,0.1,0.5,0.2,0.6c0.1,0.1,0.4,0.1,0.7,0.1l0,0.2l-3.1,0.4L50.6,10.1
		z M53.7,6.3C54,6.1,54,5.7,54,5.2c-0.1-0.4-0.1-0.6-0.3-0.8c-0.2-0.3-0.6-0.4-1-0.4c-0.3,0-0.4,0.1-0.5,0.2
		c-0.1,0.1-0.1,0.2-0.1,0.3l0.3,2.3C53.1,6.7,53.5,6.5,53.7,6.3z M60.8,3.1v0.2c-0.4,0-0.6,0-0.7,0.2c-0.1,0.1-0.2,0.3-0.2,0.7
		l-0.1,3.1c0,0.5,0.1,0.8,0.2,1.1c0.2,0.5,0.6,0.7,1.2,0.7c0.7,0,1.2-0.2,1.5-0.8c0.2-0.3,0.2-0.7,0.2-1.2l0.1-2.9
		c0-0.3-0.1-0.6-0.2-0.7c-0.1-0.1-0.4-0.2-0.7-0.3V3.1l2.1,0v0.2c-0.3,0.1-0.5,0.1-0.6,0.2c-0.1,0.1-0.1,0.3-0.1,0.6l-0.1,3
		c0,0.8-0.2,1.4-0.6,1.8c-0.4,0.4-1,0.6-1.8,0.6c-1.1,0-1.8-0.4-2.2-1c-0.2-0.3-0.3-0.8-0.3-1.3l0.1-3.1c0-0.3,0-0.6-0.1-0.7
		c-0.1-0.1-0.3-0.2-0.6-0.2V3L60.8,3.1z M68.5,6.8c0.3-0.1,0.5-0.5,0.6-1.1c0.1-0.4,0.1-0.8,0-1.1c-0.1-0.3-0.4-0.4-0.8-0.5
		c-0.2,0-0.3,0-0.4,0c-0.1,0-0.1,0.1-0.1,0.2l-0.4,2.5C67.9,6.9,68.3,6.9,68.5,6.8z M64.6,9.3c0.3,0,0.5,0,0.6-0.1
		c0.1-0.1,0.2-0.3,0.3-0.6l0.7-4.1c0.1-0.4,0-0.6-0.1-0.7c-0.1-0.1-0.3-0.2-0.6-0.3l0-0.2l3,0.5c0.8,0.1,1.4,0.3,1.7,0.7
		c0.4,0.3,0.5,0.8,0.4,1.4c-0.1,0.3-0.2,0.6-0.4,0.8c-0.2,0.2-0.5,0.4-0.9,0.5c-0.3,0.1-0.6,0.1-0.9,0.1c-0.3,0-0.7-0.1-1.2-0.2
		L67,8.8c-0.1,0.3,0,0.6,0.1,0.7c0.1,0.1,0.3,0.2,0.6,0.3l0,0.2l-3.1-0.5L64.6,9.3z M108.6,87.3c4.1-7.7,6.5-16.5,6.5-25.9
		c0-23.2-14.4-43.1-34.8-51V9.1c21.1,8,36,28.4,36,52.3c0,9.3-2.3,18.1-6.3,25.9L108.6,87.3L108.6,87.3z M40.4,10.3
		c-20.4,8-34.8,27.8-34.8,51c0,9.4,2.3,18.2,6.5,25.9h-1.3c-4.1-7.8-6.3-16.6-6.3-25.9c0-23.9,15-44.3,36-52.3L40.4,10.3L40.4,10.3z
		"/>
	<path class="st0" d="M58.8,106c0-0.3,0.1-0.6,0.1-0.8c0-0.5,0-1-0.1-1.4c-0.1-0.3-0.1-0.4-0.3-0.6c-0.1-0.1-0.2-0.1-0.3-0.1
		c-0.2,0-0.3,0-0.3,0.1c-0.1,0.2-0.2,0.5-0.2,1c0,0.8,0,1.3,0.2,1.6c0.1,0.2,0.3,0.3,0.5,0.3C58.5,106.1,58.7,106.1,58.8,106z"/>
	<path class="st0" d="M60.2,12.3c-27.6,0-49.9,22.4-49.9,49.9c0,27.6,22.4,50,49.9,50c27.6,0,50-22.4,50-50
		C110.2,34.6,87.8,12.3,60.2,12.3z M54.3,108c0.1,0.1,0.2,0.1,0.5,0.2l0.1,0l0,0.2l-3-0.5l0-0.2l0.1,0c0.3,0,0.4,0,0.6,0
		c0.1,0,0.2-0.1,0.2-0.2c0.1-0.1,0.1-0.3,0.2-0.7l0.5-2.9c0.1-0.3,0.1-0.4,0.1-0.5c0-0.1-0.1-0.1-0.1-0.2c-0.1-0.1-0.1-0.1-0.2-0.1
		c-0.1,0-0.3,0-0.5,0.1l-0.1-0.2l2.3-0.6l0.1,0l-0.8,4.6c-0.1,0.3-0.1,0.6-0.1,0.7C54.2,107.8,54.2,108,54.3,108z M59.7,107
		c-0.3,0.5-0.8,1-1.4,1.3c-0.6,0.3-1.3,0.4-2.1,0.4v-0.1c0.5-0.1,0.9-0.2,1.2-0.4c0.4-0.2,0.6-0.4,0.8-0.7c0.2-0.3,0.4-0.7,0.5-1.1
		c-0.2,0.1-0.3,0.1-0.5,0.2c-0.1,0-0.2,0.1-0.4,0c-0.4,0-0.8-0.2-1.1-0.5c-0.3-0.3-0.4-0.8-0.4-1.3c0-0.4,0.1-0.7,0.3-1
		c0.2-0.3,0.4-0.5,0.7-0.7c0.3-0.2,0.6-0.2,0.9-0.2c0.3,0,0.6,0.1,0.9,0.3c0.3,0.2,0.5,0.5,0.7,0.9c0.2,0.4,0.2,0.8,0.2,1.3
		C60.2,105.8,60,106.4,59.7,107z M63.9,108c-0.4,0.5-0.9,0.7-1.7,0.8c-0.5,0-0.8,0-1.1-0.2c-0.2-0.1-0.3-0.2-0.3-0.4
		c0-0.1,0-0.3,0.1-0.3c0.1-0.1,0.2-0.2,0.3-0.2c0.1,0,0.2,0,0.3,0c0,0,0.2,0.1,0.5,0.3c0.3,0.2,0.6,0.3,0.8,0.3
		c0.2,0,0.4-0.1,0.5-0.3c0.1-0.2,0.2-0.4,0.2-0.6c0-0.4-0.2-0.7-0.5-1c-0.3-0.3-0.7-0.5-1.2-0.6l0-0.1c0.3-0.1,0.5-0.2,0.6-0.3
		c0.1-0.1,0.2-0.2,0.3-0.4c0.1-0.2,0.1-0.3,0.1-0.5c0-0.2-0.1-0.4-0.3-0.6c-0.2-0.2-0.4-0.2-0.7-0.2c-0.4,0-0.7,0.3-1,0.7l-0.2,0
		c0.2-0.5,0.4-0.9,0.7-1.1c0.3-0.3,0.6-0.4,1-0.5c0.4,0,0.7,0.1,1,0.3c0.3,0.2,0.4,0.5,0.5,0.8c0,0.2,0,0.4-0.1,0.6
		c-0.1,0.2-0.3,0.4-0.5,0.6c0.3,0.1,0.6,0.3,0.8,0.5c0.2,0.2,0.3,0.5,0.3,0.9C64.5,107,64.3,107.5,63.9,108z M67.9,108.1l-0.6,0.1
		l0.7-4.9l-1.2,0.2c-0.5,0.1-0.8,0.2-1,0.4c-0.2,0.1-0.3,0.3-0.3,0.5l-0.2,0l0.1-1.8l3.4-0.6L67.9,108.1z M60.2,100.4
		c-21.1,0-38.2-17.1-38.2-38.2c0-21.1,17.1-38.1,38.2-38.1c21.1,0,38.2,17.1,38.2,38.1C98.4,83.3,81.3,100.4,60.2,100.4z"/>
	<path class="st0" d="M60.2,13C33,13,11,35,11,62.2c0,27.2,22,49.3,49.2,49.3c27.2,0,49.2-22.1,49.2-49.3C109.4,35,87.4,13,60.2,13z
		 M60.2,11.6c28,0,50.7,22.7,50.7,50.7c0,28-22.7,50.7-50.7,50.7c-28,0-50.7-22.7-50.7-50.7C9.6,34.2,32.2,11.6,60.2,11.6z
		 M60.2,14.4c26.4,0,47.8,21.4,47.8,47.8c0,26.4-21.4,47.8-47.8,47.8c-26.4,0-47.8-21.4-47.8-47.8C12.4,35.8,33.8,14.4,60.2,14.4z
		 M60.2,14.9c-26.1,0-47.3,21.2-47.3,47.3c0,26.1,21.2,47.3,47.3,47.3c26.1,0,47.3-21.2,47.3-47.3C107.6,36.1,86.4,14.9,60.2,14.9z
		 M60.2,22.5c21.9,0,39.7,17.8,39.7,39.7S82.2,102,60.2,102c-21.9,0-39.7-17.8-39.7-39.8S38.3,22.5,60.2,22.5z M60.2,23
		C38.5,23,21,40.5,21,62.2c0,21.7,17.6,39.3,39.3,39.3c21.7,0,39.2-17.6,39.2-39.3C99.5,40.5,81.9,23,60.2,23z"/>
</g>
</svg>
